<?xml version="1.0" encoding="utf-8"?>
<!-- Generator: Adobe Illustrator 23.0.1, SVG Export Plug-In . SVG Version: 6.00 Build 0)  -->
<svg version="1.1" id="Layer_1" xmlns="http://www.w3.org/2000/svg" xmlns:xlink="http://www.w3.org/1999/xlink" x="0px" y="0px"
	 viewBox="0 0 504 212.5" style="enable-background:new 0 0 504 212.5;" xml:space="preserve">
<style type="text/css">
	.st0{fill:#010101;}
	.st1{fill:#595A5C;}
	.st2{fill:#E16940;}
</style>
<g>
	<g>
		<path class="st0" d="M181.56,114.88c0-7.02-4.34-12.31-11.28-12.31c-6.71,0-12,5.28-12,12.31c0,7.02,4.89,12.3,11.6,12.3
			C176.44,127.18,181.56,121.9,181.56,114.88 M159.17,130.41l-1.03,4.18h-8.05V78.2h9.23v21.14c2.76-2.84,7.34-5.13,12.23-5.13
			c12.07,0,19.41,9.15,19.41,20.67c0,11.51-8.37,20.66-19.8,20.66C166.03,135.54,161.29,133.1,159.17,130.41"/>
		<path class="st0" d="M199,95.16h9.23v39.44H199V95.16z M198.53,79.38h10.18V89h-10.18V79.38z"/>
		<path class="st0" d="M241.36,109.59c0-3.94-2.92-7.33-7.34-7.33c-4.26,0-7.73,3.39-7.73,7.33c0,4.02,3.31,7.26,7.73,7.26
			C238.6,116.85,241.36,113.61,241.36,109.59 M243.88,133.97c0-5.29-4.42-9.38-9.86-9.38c-5.44,0-10.25,4.1-10.25,9.38
			c0,5.2,4.5,9.31,10.25,9.31S243.88,139.17,243.88,133.97 M215.17,134.6c0-6.55,4.18-12.23,8.68-14.44
			c-2.84-1.89-5.92-6.31-5.92-10.88c0-8.68,7.5-15.06,16.09-15.06H252v5.6l-6.15,1.34c1.81,1.66,3.86,4.57,3.86,8.92
			c0,4.57-3,8.51-5.91,10.09c4.49,2.21,8.67,7.89,8.67,14.44c0,9.7-8.2,16.72-18.45,16.72C223.77,151.32,215.17,144.3,215.17,134.6"
			/>
		<path class="st0" d="M311.81,114.88c0-7.02-4.34-12.31-11.28-12.31c-6.7,0-11.99,5.28-11.99,12.31c0,7.02,4.89,12.3,11.59,12.3
			C306.68,127.18,311.81,121.9,311.81,114.88 M289.41,130.41l-1.03,4.18h-8.04V78.2h9.23v21.14c2.76-2.84,7.33-5.13,12.22-5.13
			c12.07,0,19.41,9.15,19.41,20.67c0,11.51-8.37,20.66-19.8,20.66C296.27,135.54,291.54,133.1,289.41,130.41"/>
		<path class="st0" d="M359.93,114.88c0-7.02-4.89-12.31-11.6-12.31c-6.78,0-11.67,5.28-11.67,12.31c0,7.01,4.89,12.3,11.67,12.3
			C355.03,127.18,359.93,121.89,359.93,114.88 M327.19,114.88c0-11.52,8.2-20.67,19.56-20.67c5.12,0,9.86,2.21,12.23,5.13l1.1-4.18
			h8.05v39.44h-8.05l-1.1-4.18c-2.21,2.92-7.1,5.13-12.23,5.13C335.39,135.54,327.19,126.39,327.19,114.88"/>
		<path class="st0" d="M379.33,95.15h8.05l1.1,5.52c1.97-3.71,6.63-6.47,11.67-6.47c10.18,0,15.23,5.99,15.23,17.03v23.35h-9.23
			v-21.14c0-7.02-2.45-10.89-7.89-10.89c-5.44,0-9.7,5.13-9.7,15.93v16.09h-9.23V95.15z"/>
		<path class="st0" d="M448.03,109.59c0-3.94-2.92-7.33-7.34-7.33c-4.26,0-7.73,3.39-7.73,7.33c0,4.02,3.31,7.26,7.73,7.26
			C445.28,116.85,448.03,113.61,448.03,109.59 M450.56,133.97c0-5.29-4.41-9.38-9.86-9.38c-5.44,0-10.25,4.1-10.25,9.38
			c0,5.2,4.49,9.31,10.25,9.31C446.46,143.28,450.56,139.17,450.56,133.97 M421.84,134.6c0-6.55,4.18-12.23,8.68-14.44
			c-2.85-1.89-5.92-6.31-5.92-10.88c0-8.68,7.49-15.06,16.09-15.06h17.99v5.6l-6.15,1.34c1.82,1.66,3.86,4.57,3.86,8.92
			c0,4.57-3,8.51-5.92,10.09c4.5,2.21,8.68,7.89,8.68,14.44c0,9.7-8.2,16.72-18.46,16.72C430.44,151.32,421.84,144.3,421.84,134.6"
			/>
	</g>
	<g>
		<path class="st1" d="M67.69,78.98c5.78,0,10.47,4.69,10.47,10.47c0,5.78-4.69,10.47-10.47,10.47c-5.78,0-10.47-4.69-10.47-10.47
			C57.21,83.67,61.9,78.98,67.69,78.98 M57.21,122.79c0-5.78,4.69-10.48,10.47-10.48c2.8,0,5.34,1.11,7.22,2.9l18.22-18.22
			c-1.97-1.9-3.21-4.57-3.21-7.53c0-5.78,4.69-10.47,10.47-10.47c2.96,0,5.63,1.23,7.53,3.21l8.52-8.51
			c-0.27-0.27-0.54-0.53-0.83-0.79c-4-3.61-9.34-5.78-15.25-5.78c-6.44,0-12.24,2.65-16.32,6.97c-4.08-4.32-9.88-6.97-16.32-6.97
			c-5.81,0-11.07,2.1-15.05,5.6c-4.61,4.06-7.5,10.01-7.5,16.78c0,6.67,2.95,12.59,7.65,16.62c-4.7,4.03-7.65,9.95-7.65,16.62
			c0,6.24,2.45,11.77,6.44,15.78l8.5-8.5C58.32,128.12,57.21,125.58,57.21,122.79"/>
		<path class="st2" d="M100.38,112.31c5.79,0,10.47,4.69,10.47,10.48c0,5.79-4.69,10.47-10.47,10.47c-5.78,0-10.47-4.69-10.47-10.47
			C89.91,117,94.6,112.31,100.38,112.31 M52.72,139.55c3.97,3.47,9.21,5.55,14.99,5.55c6.44,0,12.24-2.65,16.32-6.97
			c4.08,4.32,9.88,6.97,16.32,6.97c5.87,0,11.2-2.15,15.19-5.73c4.53-4.06,7.35-9.96,7.35-16.66c0-6.67-2.95-12.59-7.65-16.62
			c4.7-4.03,7.65-9.95,7.65-16.62c0-6.25-2.46-11.8-6.46-15.81l-8.51,8.51c1.81,1.88,2.94,4.44,2.94,7.26
			c0,5.78-4.69,10.47-10.47,10.47c-2.82,0-5.38-1.12-7.26-2.94L74.9,115.21c2,1.91,3.26,4.59,3.26,7.58
			c0,5.79-4.69,10.47-10.47,10.47c-2.98,0-5.67-1.25-7.58-3.26l-8.5,8.5C51.97,138.86,52.34,139.22,52.72,139.55"/>
	</g>
</g>
</svg>
