<svg xmlns="http://www.w3.org/2000/svg" viewBox="0 0 360 165"><defs><style>.cls-1{fill:#fff;}</style></defs><title>GG_WTC_Black_Opaque_RGB</title><g id="GG_WTC_Black_Opaque"><rect id="Fill" class="cls-1" x="34.81" y="40.59" width="281.17" height="53.22"/><path id="WT" d="M28.62,126.45,24,140.81h1.85L27,137.05h4.85L33,140.81H34.8l-4.63-14.36Zm.77,2.53,2,6.52H27.44Zm23.06-2.53-2.56,14.36H47l-1.68-8.46-1.66,8.46H40.74l-2.57-14.36h2.89l1.35,9,1.69-9h2.43l1.69,9,1.36-9Zm11.3,0v9.94a4.65,4.65,0,0,1-1.23,3.43A4.78,4.78,0,0,1,59,141a4.8,4.8,0,0,1-3.52-1.2,4.68,4.68,0,0,1-1.22-3.48v-9.87h2.92v9.88a3,3,0,0,0,.39,1.75,1.71,1.71,0,0,0,1.43.52,1.69,1.69,0,0,0,1.42-.52,2.88,2.88,0,0,0,.39-1.7v-9.93ZM76,140.81h-2.9l-4.24-9.42v9.42H66V126.45h2.9l4.25,9.43v-9.43H76Zm5.22-11.94v9.53h.87a2.44,2.44,0,0,0,2-.76,4.59,4.59,0,0,0,.62-2.64v-2.49a5.17,5.17,0,0,0-.56-2.81,2.25,2.25,0,0,0-1.91-.83Zm-2.9,11.94V126.45h3.8a5.23,5.23,0,0,1,4,1.6,6.23,6.23,0,0,1,1.53,4.38v2.32a6.25,6.25,0,0,1-1.5,4.44A5.3,5.3,0,0,1,82,140.81Zm18.82-6.21H92.62v3.8H98v2.41H89.72V126.45h8.22v2.42H92.62v3.39h4.51Zm5.81-1.45h1.64a1.53,1.53,0,0,0,1.3-.58,2.49,2.49,0,0,0,.44-1.54c0-1.44-.56-2.16-1.69-2.16h-1.69Zm1.43,2.41h-1.43v5.25H100V126.45h4.62a4.72,4.72,0,0,1,3.37,1.13,4.23,4.23,0,0,1,1.18,3.21,4.16,4.16,0,0,1-2.08,4l2.52,5.88v.14h-3.12ZM115,126.45l2.71,10.38,2.7-10.38h3.79v14.36h-2.91v-3.89l.27-6-2.87,9.87h-2l-2.87-9.87.26,6v3.89h-2.89V126.45Zm15.23,9h2.68l-1.34-5.11Zm3.32,2.42h-3.95l-.77,2.94h-3.07l4.49-14.36h2.65l4.52,14.36h-3.1Zm15.24,2.94h-2.9l-4.23-9.42v9.42h-2.9V126.45h2.9l4.24,9.43v-9.43h2.89Zm14.48-11.94h-3.55v11.94H156.8V128.87h-3.49v-2.42h9.95Zm12.13,11.94h-2.88v-6.15h-4.28v6.15h-2.9V126.45h2.9v5.81h4.28v-5.81h2.88Zm9.53-8.29a5.85,5.85,0,0,0-.56-2.89,1.84,1.84,0,0,0-1.71-.95,1.88,1.88,0,0,0-1.71.91,5.69,5.69,0,0,0-.57,2.78v2.55a5.41,5.41,0,0,0,.56,2.78,1.93,1.93,0,0,0,1.74.89,1.86,1.86,0,0,0,1.68-.87,5.28,5.28,0,0,0,.57-2.71Zm2.9,2.4a6.71,6.71,0,0,1-1.36,4.49,5.34,5.34,0,0,1-7.59,0,6.62,6.62,0,0,1-1.4-4.43v-2.45a7.05,7.05,0,0,1,1.37-4.62,5.19,5.19,0,0,1,7.58,0,6.94,6.94,0,0,1,1.4,4.58Zm5.89-8.47,2.71,10.38,2.7-10.38h3.79v14.36H200v-3.89l.26-6-2.87,9.87h-2l-2.87-9.87.27,6v3.89h-2.9V126.45Zm14.42,6.89h2a1.58,1.58,0,0,0,1.28-.54,2.35,2.35,0,0,0,.46-1.58,2.86,2.86,0,0,0-.47-1.71,1.5,1.5,0,0,0-1.24-.64h-2Zm0,2.42v5.05h-2.9V126.45h4.89a4.5,4.5,0,0,1,3.4,1.32,4.78,4.78,0,0,1,1.26,3.44,4.43,4.43,0,0,1-1.25,3.33,4.77,4.77,0,0,1-3.47,1.22ZM222.37,137a1.85,1.85,0,0,0-.44-1.33,5.37,5.37,0,0,0-1.64-.93,7.6,7.6,0,0,1-3.1-1.91,3.88,3.88,0,0,1-.95-2.6,3.63,3.63,0,0,1,1.29-2.91,4.83,4.83,0,0,1,3.27-1.1,4.88,4.88,0,0,1,2.35.55,3.84,3.84,0,0,1,1.59,1.58,4.58,4.58,0,0,1,.56,2.3h-2.89a2.4,2.4,0,0,0-.42-1.53,1.74,1.74,0,0,0-2.42-.08,1.66,1.66,0,0,0-.43,1.21,1.52,1.52,0,0,0,.47,1.07,5.49,5.49,0,0,0,1.68,1,7.05,7.05,0,0,1,3.05,1.86,4.17,4.17,0,0,1,.95,2.81A3.72,3.72,0,0,1,224.1,140a4.75,4.75,0,0,1-3.24,1.05,5.64,5.64,0,0,1-2.54-.57,4.34,4.34,0,0,1-1.79-1.63,4.77,4.77,0,0,1-.64-2.52h2.91a2.78,2.78,0,0,0,.48,1.81,2,2,0,0,0,1.58.56c1,0,1.51-.54,1.51-1.61M234,132.52a5.85,5.85,0,0,0-.56-2.89,1.84,1.84,0,0,0-1.71-.95,1.88,1.88,0,0,0-1.71.91,5.69,5.69,0,0,0-.57,2.78v2.55a5.41,5.41,0,0,0,.56,2.78,1.93,1.93,0,0,0,1.74.89,1.85,1.85,0,0,0,1.68-.87A5.28,5.28,0,0,0,234,135Zm2.9,2.4a6.71,6.71,0,0,1-1.36,4.49,5.34,5.34,0,0,1-7.59,0,6.62,6.62,0,0,1-1.4-4.43v-2.45a7.05,7.05,0,0,1,1.37-4.62,5.19,5.19,0,0,1,7.58,0,6.94,6.94,0,0,1,1.4,4.58ZM249,140.81h-2.9l-4.24-9.42v9.42H239V126.45h2.9l4.25,9.43v-9.43H249Zm14.76-4.57a5.32,5.32,0,0,1-1.3,3.54,4.43,4.43,0,0,1-3.33,1.22,4.1,4.1,0,0,1-3.43-1.64,7.13,7.13,0,0,1-1.27-4.45v-2.6a6.9,6.9,0,0,1,1.31-4.43,4.33,4.33,0,0,1,3.56-1.62,4.14,4.14,0,0,1,3.22,1.24,5.46,5.46,0,0,1,1.24,3.56H262a4.42,4.42,0,0,0-.74-2.51,2.3,2.3,0,0,0-1.89-.75,2.6,2.6,0,0,0-2.26,1.15,6,6,0,0,0-.79,3.37V135a6.26,6.26,0,0,0,.74,3.34,2.37,2.37,0,0,0,2.14,1.17,2.58,2.58,0,0,0,2-.71,4.34,4.34,0,0,0,.77-2.51Zm10-3.86A6.22,6.22,0,0,0,273,129a2.86,2.86,0,0,0-4.54,0,6,6,0,0,0-.77,3.31v2.57a6.06,6.06,0,0,0,.76,3.35,2.56,2.56,0,0,0,2.29,1.16,2.52,2.52,0,0,0,2.24-1.07,6,6,0,0,0,.76-3.26Zm1.81,2.51a7.14,7.14,0,0,1-1.26,4.53,4.27,4.27,0,0,1-3.55,1.58,4.33,4.33,0,0,1-3.51-1.54,6.85,6.85,0,0,1-1.34-4.36v-2.7a7.16,7.16,0,0,1,1.28-4.51,4.23,4.23,0,0,1,3.54-1.63,4.29,4.29,0,0,1,3.54,1.56,7.07,7.07,0,0,1,1.3,4.46Zm5.11-8.44,3.75,11.72,3.74-11.72h2.33v14.36h-1.8v-5.59l.16-5.6-3.75,11.19h-1.38L280,129.66l.17,5.56v5.59h-1.8V126.45ZM295,133.64h2.78a2.34,2.34,0,0,0,1.84-.72,3,3,0,0,0,.64-2.06,3.11,3.11,0,0,0-.66-2.08,2.26,2.26,0,0,0-1.82-.78H295Zm0,1.55v5.62h-1.8V126.45h4.58a4.13,4.13,0,0,1,3.14,1.2,4.43,4.43,0,0,1,1.14,3.19A4.38,4.38,0,0,1,301,134a4.2,4.2,0,0,1-3.07,1.16Zm10.35.31h3.91l-2-6.52Zm4.37,1.55h-4.85l-1.11,3.76H301.9l4.63-14.36h1.55l4.63,14.36h-1.85ZM324,140.81h-1.81l-5.75-11.06v11.06h-1.81V126.45h1.81l5.77,11.11V126.45H324Zm12-14.36h0l-4.08,9v5.36h-1.8v-5.36l-4.09-9h2.06l2.93,7.21,2.94-7.21Z"/><path id="GG" d="M293.07,63.13l3.47,8.15h-6.92Zm-141.69-5q-.85,0-1.65,0a9.32,9.32,0,0,0-1.21.14v8.92l1,.08c.46,0,.91,0,1.36,0A6.62,6.62,0,0,0,155.38,66a4.42,4.42,0,0,0,1.44-3.51,4,4,0,0,0-1.4-3.19A6,6,0,0,0,151.38,58.1Zm-34,2.72a7.89,7.89,0,0,0-2.71-2,8.34,8.34,0,0,0-3.48-.73,8.45,8.45,0,0,0-3.51.73,7.78,7.78,0,0,0-2.73,2,10.07,10.07,0,0,0-1.78,3.11,12.26,12.26,0,0,0,0,7.82,9.91,9.91,0,0,0,1.78,3.1,8.1,8.1,0,0,0,2.74,2,8.22,8.22,0,0,0,3.5.74,8.08,8.08,0,0,0,6.19-2.78,9.53,9.53,0,0,0,1.78-3.1,12.26,12.26,0,0,0,0-7.82A9.69,9.69,0,0,0,117.41,60.82ZM336,24v87.6H24V24ZM78.77,66.69H67.12v4.8H73.6v5a9.87,9.87,0,0,1-2.27.88,12.41,12.41,0,0,1-3,.31,9.3,9.3,0,0,1-3.73-.73,9.59,9.59,0,0,1-3-2,9.12,9.12,0,0,1-2-3.1,10.31,10.31,0,0,1-.73-3.94,11.23,11.23,0,0,1,.64-3.8A9.16,9.16,0,0,1,61.27,61a8.41,8.41,0,0,1,3-2.06,10.2,10.2,0,0,1,4.1-.76,12.43,12.43,0,0,1,3.74.59,14.73,14.73,0,0,1,3.54,1.68l.28.17,2.47-4.34-.25-.15A21,21,0,0,0,73.61,54a17.36,17.36,0,0,0-5.49-.79,15.87,15.87,0,0,0-5.7,1,14.41,14.41,0,0,0-8.1,7.61,14,14,0,0,0-1.24,6,14.2,14.2,0,0,0,4.49,10.57,14.65,14.65,0,0,0,4.79,3,15.73,15.73,0,0,0,5.71,1.06h.05a18.82,18.82,0,0,0,5.72-.81,20.92,20.92,0,0,0,4.78-2.27l.15-.1Zm46.77,1.16A15.62,15.62,0,0,0,124.47,62,13.66,13.66,0,0,0,117,54.28a14.57,14.57,0,0,0-5.69-1.1,14.85,14.85,0,0,0-5.71,1.1,14.09,14.09,0,0,0-4.6,3.06A13.94,13.94,0,0,0,98,62a15.25,15.25,0,0,0-1.11,5.86,15.71,15.71,0,0,0,1.07,5.81,13.8,13.8,0,0,0,3,4.64,13.55,13.55,0,0,0,4.51,3.06,14.44,14.44,0,0,0,5.67,1.11h0a14.51,14.51,0,0,0,5.67-1.1,14.35,14.35,0,0,0,4.6-3.06,14.07,14.07,0,0,0,3.05-4.65A15.11,15.11,0,0,0,125.54,67.85Zm39.28,14.57-7.64-12A9.15,9.15,0,0,0,161,67.27a8.72,8.72,0,0,0,1.45-5,9.15,9.15,0,0,0-.68-3.57,7.66,7.66,0,0,0-2.16-2.89A10.64,10.64,0,0,0,156,53.92a17.45,17.45,0,0,0-5.19-.69c-1.42,0-2.72,0-3.91.13s-2.32.19-3.44.32l-.28,0v28.7h5.37V71.78c.35,0,.7,0,1.06,0s.93,0,1.39,0h.76a3.45,3.45,0,0,0,.55,0l6,10,.43.62Zm24.65-29.19H184.1V82.42h5.37Zm39.37,24.25H216.65V53.23h-5.36V82.42h17.55Zm35.78,0H252.43V53.26h-5.37V82.42h17.56Zm42.3,4.94L293.69,53.26h-1.08L279.34,82.42h5.59l2.87-6.77h10.56l2.87,6.77h5.69Z"/></g></svg>