<svg width="153" height="79" viewBox="0 0 153 79" fill="none" xmlns="http://www.w3.org/2000/svg">
<path d="M16.8188 4.26261L23.0654 0.474628C18.2138 0.068535 16.2222 2.07237 15.3975 3.66346C11.6162 2.47181 7.50146 4.03626 7.50146 4.03626L19.9947 7.47141C19.3646 6.19605 18.2691 5.0831 16.8364 4.26261H16.8188Z" fill="#1F244D"/>
<path d="M146.288 47.9941L152.534 44.2062C147.683 43.8001 145.691 45.8106 144.875 47.4016C141.085 46.2033 136.979 47.7678 136.979 47.7678L149.463 51.2029C148.831 49.9285 147.736 48.8159 146.305 47.9941H146.288Z" fill="#1F244D"/>
<path d="M9.31732 75.7881L15.564 72.0001C10.7123 71.594 8.72074 73.5979 7.89604 75.189C4.11471 73.9973 0 75.5618 0 75.5618L12.4933 78.9969C11.8631 77.7215 10.7677 76.6086 9.33489 75.7881H9.31732Z" fill="#1F244D"/>
</svg>
