<svg width="1173" height="626" viewBox="0 0 1173 626" fill="none" xmlns="http://www.w3.org/2000/svg">
<path d="M378.048 14.7505L384.295 10.9625C379.443 10.5565 377.452 12.5603 376.636 14.1447C372.846 12.9531 368.74 14.5175 368.74 14.5175L381.224 17.9859C380.601 16.7003 379.505 15.5774 378.066 14.7505H378.048Z" fill="#1F244D"/>
<path d="M429.583 4.45837L435.83 0.670407C430.978 0.264316 428.986 2.27479 428.17 3.85922C424.38 2.66091 420.274 4.22537 420.274 4.22537L432.759 7.69379C432.131 6.40652 431.029 5.28342 429.583 4.45837V4.45837Z" fill="#1F244D"/>
<path d="M441.111 45.6202L447.358 41.8322C442.506 41.4261 440.515 43.4366 439.699 45.021C435.909 43.8227 431.803 45.3872 431.803 45.3872L444.287 48.8556C443.664 47.57 442.568 46.4471 441.129 45.6202H441.111Z" fill="#1F244D"/>
<path d="M921.819 40.2626L928.065 36.4746C923.214 36.0685 921.222 38.0724 920.398 39.6635C916.616 38.4718 912.501 40.0363 912.501 40.0363L924.995 43.4714C924.365 42.196 923.269 41.0831 921.836 40.2626H921.819Z" fill="#1F244D"/>
<path d="M1051.29 83.9941L1057.53 80.2062C1052.68 79.8001 1050.69 81.8106 1049.88 83.4016C1046.08 82.2033 1041.98 83.7678 1041.98 83.7678L1054.46 87.2029C1053.83 85.9285 1052.74 84.8159 1051.31 83.9941H1051.29Z" fill="#1F244D"/>
<path d="M914.317 111.788L920.564 108C915.712 107.594 913.721 109.598 912.896 111.189C909.115 109.997 905 111.562 905 111.562L917.493 114.997C916.863 113.722 915.768 112.609 914.335 111.788H914.317Z" fill="#1F244D"/>
<path d="M402.779 553.979C373.976 555.638 341.304 583.311 332.057 623.762H486.196C473.878 579.668 433.766 552.189 402.779 553.979Z" fill="#F4F4F4"/>
<path d="M1059.26 524.116C1028.61 526.47 993.837 565.692 984 623H1148C1134.89 560.536 1092.21 521.586 1059.26 524.116Z" fill="#F4F4F4"/>
<path d="M456.343 505C433.793 356.528 578.418 245.527 702.029 240.207C832.37 234.603 1010.62 343.507 996.175 505" fill="#F4F4F4"/>
<path d="M398.785 111.59C404.083 111.59 409.261 110.018 413.666 107.074C418.071 104.13 421.504 99.9449 423.531 95.0488C425.559 90.1527 426.089 84.7651 425.056 79.5674C424.022 74.3697 421.471 69.5954 417.725 65.848C413.979 62.1007 409.206 59.5488 404.011 58.5149C398.815 57.481 393.429 58.0116 388.535 60.0396C383.641 62.0677 379.457 65.502 376.514 69.9084C373.571 74.3148 372 79.4953 372 84.7949C372 91.9013 374.822 98.7167 379.845 103.742C384.868 108.767 391.681 111.59 398.785 111.59Z" fill="#F2463A"/>
<path d="M609 622L787.65 125L955 622H609Z" fill="#F89790" fill-opacity="0.33"/>
<path d="M439.495 458.763L485.511 403.935H575.974L631.246 457.806L630.123 458.526H630.526V622.832H439.557V458.552L439.495 458.763Z" fill="#3F3D56"/>
<path d="M484.792 403.242L541.512 469.777V622.832H439.557V457.113L484.792 403.242Z" fill="#6C63FF"/>
<path d="M439.495 458.763L485.511 403.935H575.974L631.246 457.806L630.123 458.526H630.526V622.832H439.557V458.552L439.495 458.763Z" fill="#1F244D"/>
<path d="M484.792 403.242L541.512 469.777V622.832H439.557V457.113L484.792 403.242Z" fill="#5C63AB"/>
<path d="M457.832 459.974H448.488V497.134H457.832V459.974Z" fill="white"/>
<path d="M523.281 459.974H513.911V497.134H523.264L523.281 459.974Z" fill="white"/>
<path d="M504.576 458.815H467.175V523.841H504.576V458.815Z" fill="white"/>
<path d="M486.117 430.116C475.361 430.116 466.632 439.945 466.456 452.145H505.778C505.603 439.937 496.873 430.116 486.117 430.116Z" fill="white"/>
<path d="M491.214 533.547V622.27" stroke="#1F244D" stroke-width="4" stroke-linecap="round"/>
<path d="M478.704 539.191C474.703 543.175 468.693 545.106 468.693 558.096C468.693 573.016 496.724 579.484 508.735 591.447C520.746 603.409 520.263 611.343 519.263 621.787" stroke="#1F244D" stroke-width="4" stroke-linecap="round"/>
<path d="M483.713 540.683H499.724H483.713Z" stroke="#1F244D" stroke-width="4" stroke-linecap="round"/>
<path d="M477.203 548.652H493.223H477.203Z" stroke="#1F244D" stroke-width="4" stroke-linecap="round"/>
<path d="M474.194 556.604H490.223H474.194Z" stroke="#1F244D" stroke-width="4" stroke-linecap="round"/>
<path d="M476.186 564.564H492.206H476.186Z" stroke="#1F244D" stroke-width="4" stroke-linecap="round"/>
<path d="M497.242 621.269H513.262H497.242Z" stroke="#1F244D" stroke-width="4" stroke-linecap="round"/>
<path d="M499.233 613.318H515.245H499.233Z" stroke="#1F244D" stroke-width="4" stroke-linecap="round"/>
<path d="M500.225 605.331H512.235H500.225Z" stroke="#1F244D" stroke-width="4" stroke-linecap="round"/>
<path d="M497.242 598.389H509.261H497.242Z" stroke="#1F244D" stroke-width="4" stroke-linecap="round"/>
<path d="M495.224 591.429H503.234H495.224Z" stroke="#1F244D" stroke-width="4" stroke-linecap="round"/>
<path d="M482.213 571.533H490.223H482.213Z" stroke="#1F244D" stroke-width="4" stroke-linecap="round"/>
<path d="M557.041 426.991L603.057 372.173H693.52L748.792 426.043L747.669 426.763H748.072V622.928L557.155 623.086L557.076 426.763L557.041 426.991Z" fill="#1F244D"/>
<path d="M602.338 371.453L659.067 437.98V622.928H557.103V425.324L602.338 371.453Z" fill="#5C63AB"/>
<path d="M602.092 400.749L577.149 425.692H627.026L602.092 400.749Z" fill="white"/>
<path fill-rule="evenodd" clip-rule="evenodd" d="M591.941 458.411V507.086H572.333V458.394C572.409 455.843 573.476 453.423 575.306 451.646C577.136 449.869 579.587 448.875 582.137 448.875C584.688 448.875 587.138 449.869 588.968 451.646C590.799 453.423 591.865 455.843 591.941 458.394V458.411Z" fill="white"/>
<path d="M618.885 440.972C608.129 440.972 599.399 450.802 599.224 463.002H638.555C638.379 450.785 629.65 440.972 618.885 440.972Z" fill="white"/>
<path d="M638.555 469.531H599.25V524.718H638.555V469.531Z" fill="white"/>
<path d="M638.44 565.67H616.56V587.128H638.493L638.44 565.67Z" fill="white"/>
<path d="M604.119 565.67H571.017V623.218H604.119V565.67Z" fill="white"/>
<path d="M807.933 296.124H772.26V570.83H807.933V296.124Z" fill="#1F244D"/>
<path d="M840.623 348.362H804.95V623.068H840.623V348.362Z" fill="#1F244D"/>
<path d="M807.924 296.124L840.623 348.362V356L804.95 355V348.362" fill="#1F244D"/>
<path d="M716.576 348.362L751.67 296.124H772.243L804.924 348.362V623.068H716.576V348.362Z" fill="#5C63AB"/>
<path d="M760.548 313.765V368.03" stroke="#1F244D" stroke-width="4" stroke-linecap="round"/>
<path d="M765.979 313.765V368.03" stroke="#1F244D" stroke-width="4" stroke-linecap="round"/>
<path d="M762.645 385.671V614.266" stroke="#1F244D" stroke-width="4" stroke-linecap="round"/>
<path d="M734.035 395.571H722.296V407.314H734.035V395.571Z" fill="white"/>
<path d="M752.968 395.571H741.221V407.314H752.968V395.571Z" fill="white"/>
<path d="M734.369 422.313H722.63V434.057H734.369V422.313Z" fill="white"/>
<path d="M753.292 422.313H741.545V434.057H753.292V422.313Z" fill="white"/>
<path d="M734.693 449.108H722.955V460.851H734.693V449.108Z" fill="white"/>
<path d="M753.617 449.108H741.87V460.851H753.617V449.108Z" fill="white"/>
<path d="M735 475.833H723.279V487.576H735V475.833Z" fill="white"/>
<path d="M753.942 475.833H742.194V487.576H753.942V475.833Z" fill="white"/>
<path d="M735.351 502.593H723.595V514.344H735.342L735.351 502.593Z" fill="white"/>
<path d="M754.301 502.593H742.554V514.344H754.301V502.593Z" fill="white"/>
<path d="M735.676 529.352H723.928V541.104H735.676V529.352Z" fill="white"/>
<path d="M754.591 529.352H742.843V541.104H754.591V529.352Z" fill="white"/>
<path d="M736 556.112H724.253V567.864H736V556.112Z" fill="white"/>
<path d="M754.924 556.112H743.177V567.864H754.924V556.112Z" fill="white"/>
<path d="M736.325 582.872H724.577V594.624H736.325V582.872Z" fill="white"/>
<path d="M755.249 582.872H743.501V594.624H755.249V582.872Z" fill="white"/>
<path d="M779.92 395.905H768.172V407.656H779.92V395.905Z" fill="white"/>
<path d="M798.835 395.905H787.096V407.656H798.835V395.905Z" fill="white"/>
<path d="M780.245 422.665H768.497V434.416H780.245V422.665Z" fill="white"/>
<path d="M799.16 422.665H787.421V434.416H799.16V422.665Z" fill="white"/>
<path d="M780.569 449.424H768.821V461.176H780.569V449.424Z" fill="white"/>
<path d="M799.484 449.424H787.746V461.176H799.484V449.424Z" fill="white"/>
<path d="M780.894 476.184H769.146V487.936H780.894V476.184Z" fill="white"/>
<path d="M799.818 476.184H788.07V487.936H799.818V476.184Z" fill="white"/>
<path d="M781.218 502.944H769.479V514.695H781.218V502.944Z" fill="white"/>
<path d="M800.142 502.944H788.395V514.695H800.142V502.944Z" fill="white"/>
<path d="M781.542 529.703H769.804V541.455H781.542V529.703Z" fill="white"/>
<path d="M800.467 529.703H788.728V541.455H800.467V529.703Z" fill="white"/>
<path d="M781.868 556.463H770.094V568.215H781.832L781.868 556.463Z" fill="white"/>
<path d="M800.8 556.463H789.053V568.215H800.8V556.463Z" fill="white"/>
<path d="M782.201 583.223H770.453V594.975H782.201V583.223Z" fill="white"/>
<path d="M801.125 583.223H789.395V594.975H801.143L801.125 583.223Z" fill="white"/>
<path d="M799.045 371.611H787.307V383.363H799.045V371.611Z" fill="white"/>
<path d="M733.982 371.611H722.235V383.363H733.982V371.611Z" fill="white"/>
<path d="M649.899 612.905C648.232 612.906 646.596 613.345 645.152 614.178C643.696 612.864 641.89 612 639.954 611.689C638.018 611.377 636.033 611.632 634.238 612.422C632.447 613.219 630.924 614.517 629.853 616.16C628.782 617.803 628.209 619.72 628.202 621.682H659.4C659.214 619.29 658.132 617.057 656.37 615.429C654.608 613.802 652.297 612.9 649.899 612.905V612.905Z" fill="#1F244D"/>
<path d="M907.265 447.792H897.772V461.834H907.265V447.792Z" fill="#5C63AB"/>
<path d="M907.265 460.658H826.55V623.481H907.265V460.658Z" fill="#5C63AB"/>
<path d="M906.818 460.597L906.283 623.419L938.832 623.525L939.367 460.702L906.818 460.597Z" fill="#1F244D"/>
<path d="M907.265 460.658H826.55V623.481H907.265V460.658Z" fill="#5C63AB"/>
<path d="M906.818 460.597L906.283 623.419L938.832 623.525L939.367 460.702L906.818 460.597Z" fill="#1F244D"/>
<path d="M854.037 483.741H841.824V495.949H854.037V483.741Z" fill="white"/>
<path d="M873.698 483.741H861.495V495.949H873.698V483.741Z" fill="white"/>
<path d="M893.359 483.741H881.155V495.949H893.359V483.741Z" fill="white"/>
<path d="M854.371 511.553H842.167V523.762H854.371V511.553Z" fill="white"/>
<path d="M874.041 511.553H861.828V523.762H874.041V511.553Z" fill="white"/>
<path d="M893.702 511.553H881.516V523.762H893.719L893.702 511.553Z" fill="white"/>
<path d="M854.713 539.366H842.509V551.574H854.713V539.366Z" fill="white"/>
<path d="M874.374 539.366H862.214V551.574H874.418L874.374 539.366Z" fill="white"/>
<path d="M894.044 539.366H881.831V551.574H894.044V539.366Z" fill="white"/>
<path d="M855.046 567.179H842.842V579.388H855.046V567.179Z" fill="white"/>
<path d="M874.716 567.179H862.512V579.388H874.716V567.179Z" fill="white"/>
<path d="M874.716 599.732H862.512V622.797H874.716V599.732Z" fill="white"/>
<path d="M894.377 567.179H882.173V579.388H894.377V567.179Z" fill="white"/>
<path d="M906.871 447.73L906.827 461.395H912.249V447.73H906.871Z" fill="#1F244D"/>
<path d="M1081.64 590.025C1085.13 590.03 1088.55 588.998 1091.45 587.06C1094.36 585.122 1096.63 582.365 1097.97 579.137C1099.31 575.909 1099.67 572.356 1098.99 568.927C1098.31 565.498 1096.63 562.348 1094.16 559.874C1091.69 557.401 1088.54 555.716 1085.12 555.032C1081.69 554.348 1078.14 554.696 1074.91 556.033C1071.68 557.369 1068.92 559.634 1066.98 562.54C1065.04 565.445 1064 568.862 1064 572.358C1064 577.039 1065.86 581.528 1069.16 584.841C1072.47 588.153 1076.96 590.018 1081.64 590.025V590.025Z" fill="#5C63AB"/>
<path d="M1094.77 560.571C1096.47 564.43 1096.73 568.77 1095.51 572.805C1094.28 576.84 1091.65 580.302 1088.09 582.563C1084.53 584.825 1080.28 585.735 1076.11 585.13C1071.94 584.525 1068.12 582.444 1065.35 579.265C1067.19 583.571 1070.67 586.969 1075.01 588.712C1079.36 590.455 1084.22 590.4 1088.52 588.559C1092.83 586.718 1096.22 583.241 1097.97 578.894C1099.71 574.548 1099.65 569.686 1097.81 565.38C1097.07 563.619 1096.04 561.994 1094.76 560.571H1094.77Z" fill="#4B518C"/>
<path d="M1102.21 613.028C1100.54 613.029 1098.91 613.467 1097.46 614.301C1096.01 612.987 1094.2 612.123 1092.26 611.811C1090.33 611.5 1088.34 611.755 1086.55 612.545C1084.76 613.342 1083.23 614.64 1082.16 616.283C1081.09 617.926 1080.52 619.843 1080.51 621.805H1111.7C1111.53 619.406 1110.45 617.164 1108.69 615.527C1106.93 613.891 1104.61 612.982 1102.21 612.984V613.028Z" fill="#1F244D"/>
<path d="M1081.97 573.007V622.524" stroke="#1F244D" stroke-width="4" stroke-linecap="round"/>
<path d="M336.689 622.314C338.9 622.315 341.062 621.661 342.901 620.434C344.74 619.206 346.174 617.46 347.022 615.417C347.869 613.374 348.092 611.126 347.661 608.956C347.231 606.787 346.167 604.794 344.604 603.229C343.042 601.665 341.05 600.599 338.882 600.167C336.713 599.734 334.465 599.955 332.422 600.801C330.38 601.647 328.633 603.081 327.405 604.92C326.176 606.758 325.521 608.921 325.521 611.132C325.521 614.096 326.697 616.939 328.791 619.036C330.885 621.132 333.726 622.311 336.689 622.314Z" stroke="#1F244D" stroke-width="3.99"/>
<path d="M381.433 622.314C383.644 622.315 385.806 621.661 387.645 620.434C389.485 619.206 390.919 617.46 391.766 615.417C392.613 613.374 392.836 611.126 392.405 608.956C391.975 606.787 390.911 604.794 389.349 603.229C387.786 601.665 385.794 600.599 383.626 600.167C381.457 599.734 379.209 599.955 377.167 600.801C375.124 601.647 373.378 603.081 372.149 604.92C370.92 606.758 370.265 608.921 370.265 611.132C370.265 614.096 371.441 616.939 373.535 619.036C375.63 621.132 378.47 622.311 381.433 622.314V622.314Z" stroke="#1F244D" stroke-width="3.99"/>
<path d="M373.063 592.772V585.145C373.063 584.965 373.133 584.793 373.256 584.662C373.387 584.54 373.559 584.471 373.739 584.469H380.073L373.063 592.772ZM344.015 592.763L335.926 611.949C335.874 612.049 335.853 612.161 335.864 612.273C335.878 612.386 335.917 612.494 335.978 612.589C336.04 612.685 336.124 612.763 336.224 612.817C336.325 612.868 336.436 612.895 336.548 612.896H357.271L344.015 592.763ZM344.015 592.763L357.271 612.949L344.015 592.763ZM373.063 592.763L381.837 612.15L373.063 592.763ZM373.063 592.763L357.271 612.949L373.063 592.763Z" stroke="#1F244D" stroke-width="3.99" stroke-linecap="round"/>
<path d="M355.991 616.741C356.82 616.741 357.631 616.495 358.32 616.034C359.01 615.573 359.548 614.917 359.865 614.151C360.182 613.384 360.266 612.541 360.104 611.727C359.942 610.913 359.542 610.166 358.956 609.579C358.369 608.992 357.622 608.593 356.809 608.431C355.995 608.269 355.152 608.352 354.386 608.67C353.619 608.987 352.964 609.525 352.504 610.215C352.043 610.905 351.797 611.716 351.797 612.545C351.796 613.097 351.903 613.643 352.114 614.152C352.324 614.662 352.633 615.125 353.023 615.514C353.412 615.904 353.875 616.213 354.384 616.424C354.894 616.634 355.44 616.742 355.991 616.741V616.741Z" stroke="#1F244D" stroke-width="3.99"/>
<path d="M356.254 613.362L358.798 618.575C358.859 618.688 358.946 618.784 359.053 618.856C359.165 618.918 359.292 618.951 359.421 618.952H362.404" stroke="#1F244D" stroke-width="3.99" stroke-linecap="round"/>
<path d="M341.076 584.706C341.027 584.601 341.006 584.485 341.015 584.37C341.024 584.255 341.063 584.144 341.128 584.048C341.187 583.951 341.273 583.872 341.374 583.82C341.474 583.767 341.586 583.74 341.699 583.741H350.726C350.882 583.735 351.034 583.784 351.156 583.881C351.274 583.976 351.36 584.104 351.402 584.25C351.45 584.395 351.45 584.552 351.402 584.697C351.341 584.839 351.232 584.954 351.095 585.022L343.708 588.98C343.623 589.025 343.531 589.052 343.436 589.059C343.346 589.081 343.253 589.081 343.164 589.059C343.074 589.029 342.99 588.981 342.918 588.919C342.873 588.837 342.843 588.748 342.83 588.656L341.076 584.706Z" fill="#1F244D" stroke="#1F244D" stroke-width="3.99"/>
<path d="M451.278 612.905C449.612 612.904 447.974 613.343 446.532 614.178C445.071 612.87 443.263 612.012 441.326 611.708C439.389 611.404 437.406 611.666 435.615 612.464C433.824 613.262 432.301 614.56 431.231 616.203C430.16 617.847 429.588 619.764 429.582 621.726H460.736C460.555 619.34 459.48 617.11 457.726 615.483C455.973 613.856 453.67 612.951 451.278 612.949V612.905Z" fill="#1F244D"/>
<path d="M409.745 570.988C414.186 570.99 418.528 569.674 422.221 567.207C425.915 564.74 428.794 561.232 430.494 557.128C432.195 553.024 432.64 548.507 431.774 544.15C430.908 539.792 428.769 535.79 425.629 532.648C422.489 529.507 418.488 527.367 414.132 526.501C409.776 525.635 405.261 526.08 401.158 527.781C397.055 529.482 393.549 532.362 391.083 536.057C388.616 539.752 387.301 544.095 387.303 548.538C387.303 554.492 389.667 560.203 393.876 564.413C398.085 568.623 403.793 570.988 409.745 570.988V570.988Z" fill="#5C63AB"/>
<path d="M426.441 533.548C428.523 538.448 428.795 543.93 427.21 549.013C425.625 554.096 422.286 558.45 417.788 561.298C413.29 564.145 407.927 565.301 402.657 564.559C397.386 563.816 392.55 561.224 389.014 557.244C390.28 560.249 392.186 562.942 394.599 565.135C397.012 567.328 399.873 568.969 402.984 569.944C406.095 570.919 409.381 571.204 412.613 570.78C415.845 570.355 418.946 569.232 421.7 567.487C424.454 565.742 426.795 563.418 428.56 560.676C430.326 557.934 431.472 554.84 431.921 551.61C432.37 548.38 432.109 545.091 431.158 541.972C430.208 538.852 428.589 535.978 426.415 533.548H426.441Z" fill="#4B518C"/>
<path d="M410.034 555.252V623.086" stroke="#1F244D" stroke-width="4" stroke-linecap="round"/>
<path d="M415.466 587.778L410.386 593.272" stroke="#1F244D" stroke-width="4" stroke-linecap="round"/>
<path d="M984.936 492.421L984.55 615.749C984.545 617.549 985.255 619.277 986.523 620.554C987.792 621.831 989.515 622.552 991.314 622.559H1000.9C1002.7 622.564 1004.43 621.855 1005.7 620.588C1006.98 619.322 1007.7 617.6 1007.71 615.801L1008.09 492.464C1008.09 490.664 1007.38 488.936 1006.12 487.659C1004.85 486.382 1003.12 485.661 1001.32 485.654H991.735C990.845 485.652 989.962 485.825 989.139 486.164C988.315 486.502 987.566 487 986.935 487.628C986.303 488.257 985.802 489.003 985.459 489.826C985.116 490.648 984.938 491.53 984.936 492.421V492.421Z" fill="#1F244D"/>
<path d="M991.621 485.636H939.551C938.784 485.611 938.016 485.635 937.253 485.706C935.818 485.923 934.491 486.594 933.467 487.621C932.442 488.648 931.773 489.976 931.559 491.411C931.478 492.172 931.452 492.937 931.48 493.702V614.581C931.452 615.349 931.478 616.117 931.559 616.881C931.772 618.315 932.441 619.643 933.466 620.669C934.491 621.694 935.819 622.363 937.253 622.577C938.016 622.658 938.784 622.684 939.551 622.656H991.621C992.388 622.684 993.156 622.657 993.92 622.577C995.354 622.363 996.681 621.694 997.706 620.669C998.731 619.643 999.4 618.315 999.614 616.881C999.694 616.117 999.721 615.349 999.693 614.581V493.702C999.72 492.937 999.694 492.172 999.614 491.411C999.399 489.976 998.73 488.648 997.706 487.621C996.681 486.594 995.354 485.923 993.92 485.706C993.156 485.635 992.388 485.612 991.621 485.636V485.636Z" fill="#5C63AB"/>
<path d="M956.089 497.845H975.04" stroke="#1F244D" stroke-width="4" stroke-linecap="round"/>
<path d="M965.275 617.232C966.433 617.315 967.589 617.047 968.593 616.463C969.597 615.879 970.402 615.007 970.903 613.959C971.404 612.911 971.578 611.736 971.402 610.588C971.227 609.44 970.709 608.371 969.918 607.521C969.126 606.671 968.097 606.079 966.965 605.822C965.832 605.566 964.649 605.656 963.568 606.082C962.488 606.507 961.561 607.249 960.907 608.209C960.254 609.169 959.905 610.304 959.906 611.466C959.856 612.942 960.393 614.378 961.399 615.459C962.406 616.539 963.799 617.177 965.275 617.232Z" fill="#1F244D"/>
<path d="M992.113 506.665H939.069V599.591H992.113V506.665Z" fill="white"/>
<path d="M2 622.884H1171" stroke="#1F244D" stroke-width="4" stroke-linecap="round"/>
<path d="M959.283 461.896C964.819 457.99 975.259 458.569 978.953 461.896" stroke="#F2463A" stroke-width="4.3" stroke-linecap="round"/>
<path d="M965.389 470.032C967.679 468.083 971.995 468.373 973.522 470.032" stroke="#F2463A" stroke-width="4.3" stroke-linecap="round"/>
<path d="M949.79 456.463C957.8 447.792 979.461 447.055 987.761 456.463" stroke="#F2463A" stroke-width="4.3" stroke-linecap="round"/>
<path d="M942.332 448.327C965.459 429.896 986.778 440.647 994.542 448.327" stroke="#F2463A" stroke-width="4.3" stroke-linecap="round"/>
<path d="M797.894 94.7655H802.842L807.597 106.947C807.728 107.283 807.791 107.641 807.781 108.001L807.518 119.27C807.508 119.728 807.381 120.175 807.151 120.571C806.921 120.967 806.595 121.298 806.202 121.534L799.183 125.72C799.08 125.783 798.962 125.817 798.841 125.819C798.72 125.82 798.601 125.789 798.497 125.729C798.392 125.669 798.305 125.582 798.245 125.477C798.185 125.372 798.155 125.253 798.157 125.132V121.736C798.156 121.624 798.184 121.513 798.237 121.415C798.291 121.317 798.369 121.234 798.464 121.174L802.5 118.48C802.592 118.418 802.667 118.334 802.719 118.236C802.771 118.138 802.798 118.029 802.798 117.918V107.965C802.799 107.629 802.736 107.296 802.614 106.982L797.894 94.7655Z" fill="#1F244D"/>
<path d="M775.618 95.4061H770.661L765.914 107.597C765.783 107.929 765.72 108.284 765.73 108.641L765.993 119.91C766.002 120.369 766.127 120.817 766.358 121.213C766.588 121.609 766.916 121.94 767.309 122.175L774.275 126.361C774.378 126.423 774.495 126.457 774.615 126.459C774.735 126.461 774.854 126.431 774.958 126.372C775.063 126.313 775.15 126.227 775.21 126.124C775.27 126.02 775.302 125.902 775.302 125.782V122.394C775.303 122.282 775.276 122.171 775.224 122.072C775.172 121.972 775.096 121.887 775.003 121.824L770.968 119.138C770.875 119.074 770.799 118.989 770.746 118.89C770.692 118.791 770.663 118.68 770.661 118.567V108.571C770.661 108.235 770.723 107.901 770.845 107.588L775.618 95.4061Z" fill="#1F244D"/>
<path d="M806.316 71.2444H767.187C765.689 71.2444 764.476 72.4586 764.476 73.9563V93.2911C764.476 94.7889 765.689 96.0031 767.187 96.0031H806.316C807.813 96.0031 809.027 94.7889 809.027 93.2911V73.9563C809.027 72.4586 807.813 71.2444 806.316 71.2444Z" fill="#5C63AB"/>
<path d="M742.2 81.3638C742.2 80.6445 742.486 79.9547 742.994 79.4461C743.503 78.9375 744.192 78.6518 744.911 78.6518H764.476V88.5606H744.911C744.555 88.5606 744.201 88.4901 743.872 88.3533C743.542 88.2164 743.243 88.0159 742.991 87.7631C742.739 87.5104 742.54 87.2104 742.404 86.8803C742.268 86.5503 742.199 86.1967 742.2 85.8398V81.3638Z" fill="#5C63AB"/>
<path d="M831.302 81.3638C831.302 80.6445 831.017 79.9547 830.508 79.4461C830 78.9375 829.311 78.6518 828.592 78.6518H809.027V88.5606H828.592C828.948 88.5606 829.302 88.4901 829.631 88.3533C829.96 88.2164 830.26 88.0159 830.512 87.7631C830.763 87.5104 830.963 87.2104 831.099 86.8803C831.234 86.5503 831.304 86.1967 831.302 85.8398V81.3638Z" fill="#5C63AB"/>
<path d="M787.374 91.0441C791.473 91.0441 794.796 87.7199 794.796 83.6192C794.796 79.5185 791.473 76.1942 787.374 76.1942C783.275 76.1942 779.952 79.5185 779.952 83.6192C779.952 87.7199 783.275 91.0441 787.374 91.0441Z" fill="#1F244D"/>
<path d="M770.047 77.4319C770.73 77.4319 771.284 76.8778 771.284 76.1944C771.284 75.5109 770.73 74.9569 770.047 74.9569C769.364 74.9569 768.81 75.5109 768.81 76.1944C768.81 76.8778 769.364 77.4319 770.047 77.4319Z" fill="#1F244D"/>
<path d="M774.995 77.4319C775.678 77.4319 776.232 76.8778 776.232 76.1944C776.232 75.5109 775.678 74.9569 774.995 74.9569C774.312 74.9569 773.758 75.5109 773.758 76.1944C773.758 76.8778 774.312 77.4319 774.995 77.4319Z" fill="#1F244D"/>
<path d="M770.047 81.7674H774.995" stroke="#1F244D" stroke-width="4" stroke-linecap="round"/>
<path d="M770.047 86.7174H774.995" stroke="#1F244D" stroke-width="4" stroke-linecap="round"/>
<path d="M749.008 76.4312C749.008 75.712 749.294 75.0222 749.802 74.5136C750.311 74.005 751 73.7193 751.719 73.7193H756.194C756.913 73.7193 757.602 74.005 758.111 74.5136C758.619 75.0222 758.905 75.712 758.905 76.4312V78.6693H749.008V76.4312Z" fill="#1F244D"/>
<path d="M756.431 63.8105H751.482V73.7193H756.431V63.8105Z" fill="#1F244D"/>
<path fill-rule="evenodd" clip-rule="evenodd" d="M756.431 63.8106C756.431 61.7656 755.325 60.0981 753.956 60.0981C752.588 60.0981 751.482 61.7656 751.482 63.8106H756.431Z" fill="#1F244D"/>
<path d="M736.375 63.8107C736.375 63.4952 736.44 63.1833 736.567 62.8943C736.693 62.6053 736.878 62.3456 737.109 62.1313C737.341 61.9171 737.614 61.753 737.912 61.6493C738.209 61.5456 738.525 61.5046 738.84 61.5288L751.833 62.5293C752.005 62.5405 752.165 62.6166 752.283 62.7421C752.4 62.8676 752.465 63.0332 752.465 63.2051V64.4251C752.465 64.5969 752.4 64.7625 752.283 64.888C752.165 65.0136 752.005 65.0897 751.833 65.1008L738.84 66.1014C738.525 66.1243 738.209 66.0821 737.911 65.9774C737.613 65.8726 737.34 65.7077 737.109 65.4928C736.877 65.2779 736.693 65.0176 736.567 64.7282C736.44 64.4388 736.375 64.1265 736.375 63.8107V63.8107Z" fill="#1F244D"/>
<path d="M771.644 63.8106C771.643 63.4943 771.578 63.1816 771.451 62.892C771.324 62.6023 771.138 62.3422 770.906 62.1278C770.673 61.9134 770.399 61.7495 770.1 61.6464C769.802 61.5433 769.485 61.5032 769.17 61.5287L756.176 62.5292C756.005 62.5404 755.844 62.6164 755.726 62.742C755.609 62.8675 755.544 63.0331 755.544 63.205V64.4249C755.544 64.5968 755.609 64.7624 755.726 64.8879C755.844 65.0135 756.005 65.0896 756.176 65.1007L769.17 66.1012C769.485 66.1241 769.801 66.0819 770.1 65.9773C770.398 65.8727 770.672 65.7079 770.904 65.4931C771.135 65.2783 771.321 65.0181 771.448 64.7287C771.576 64.4393 771.642 64.1268 771.644 63.8106V63.8106Z" fill="#1F244D"/>
<path d="M731.286 66.9086C729.26 64.3283 730.777 60.1243 732.804 59.4836" stroke="#F2463A" stroke-width="4" stroke-linecap="round"/>
<path d="M725.092 66.9088C722.39 62.6609 725.092 57 728.952 57" stroke="#F2463A" stroke-width="4" stroke-linecap="round"/>
<path d="M814.633 76.4312C814.633 75.712 814.919 75.0222 815.427 74.5136C815.936 74.005 816.625 73.7193 817.344 73.7193H821.819C822.538 73.7193 823.227 74.005 823.736 74.5136C824.244 75.0222 824.53 75.712 824.53 76.4312V78.6693H814.633V76.4312Z" fill="#1F244D"/>
<path d="M822.02 63.8105H817.072V73.7193H822.02V63.8105Z" fill="#1F244D"/>
<path fill-rule="evenodd" clip-rule="evenodd" d="M822.02 63.8106C822.02 61.7656 820.914 60.0981 819.546 60.0981C818.177 60.0981 817.072 61.7656 817.072 63.8106H822.02Z" fill="#1F244D"/>
<path d="M801.964 63.8107C801.965 63.4952 802.03 63.1833 802.156 62.8943C802.283 62.6053 802.468 62.3456 802.699 62.1313C802.93 61.9171 803.204 61.753 803.501 61.6493C803.799 61.5456 804.115 61.5046 804.43 61.5288L817.432 62.5293C817.602 62.5426 817.76 62.6196 817.876 62.7449C817.991 62.8702 818.055 63.0346 818.055 63.2051V64.4251C818.055 64.5955 817.991 64.7599 817.876 64.8852C817.76 65.0105 817.602 65.0876 817.432 65.1008L804.43 66.1014C804.115 66.1243 803.799 66.0821 803.501 65.9774C803.203 65.8726 802.93 65.7077 802.699 65.4928C802.467 65.2779 802.283 65.0176 802.156 64.7282C802.03 64.4388 801.965 64.1265 801.964 63.8107V63.8107Z" fill="#1F244D"/>
<path d="M837.242 63.8106C837.242 63.4943 837.176 63.1816 837.049 62.892C836.922 62.6023 836.737 62.3422 836.505 62.1278C836.272 61.9134 835.998 61.7495 835.699 61.6464C835.4 61.5433 835.083 61.5032 834.768 61.5287L821.775 62.5292C821.605 62.5425 821.446 62.6195 821.331 62.7448C821.215 62.8701 821.151 63.0345 821.152 63.205V64.4249C821.151 64.5954 821.215 64.7598 821.331 64.8851C821.446 65.0104 821.605 65.0874 821.775 65.1007L834.768 66.1012C835.083 66.1241 835.4 66.0819 835.698 65.9773C835.996 65.8727 836.27 65.7079 836.502 65.4931C836.734 65.2783 836.919 65.0181 837.047 64.7287C837.174 64.4393 837.241 64.1268 837.242 63.8106V63.8106Z" fill="#1F244D"/>
<path d="M757.676 88.5781H762.625L752.921 103.13C752.859 103.222 752.776 103.297 752.678 103.349C752.58 103.401 752.471 103.428 752.36 103.428H749.035C748.912 103.428 748.792 103.395 748.686 103.332C748.581 103.269 748.495 103.178 748.437 103.07C748.38 102.962 748.353 102.84 748.359 102.718C748.365 102.595 748.405 102.477 748.473 102.375L757.676 88.5781Z" fill="#1F244D"/>
<path d="M747.772 102.19H752.72C753.377 102.19 754.007 102.451 754.472 102.915C754.938 103.379 755.2 104.008 755.203 104.665V104.665C755.2 105.323 754.938 105.952 754.472 106.416C754.007 106.88 753.377 107.14 752.72 107.14H747.772C747.115 107.14 746.486 106.88 746.022 106.415C745.558 105.951 745.297 105.322 745.297 104.665V104.665C745.297 104.009 745.558 103.379 746.022 102.915C746.486 102.451 747.115 102.19 747.772 102.19V102.19Z" fill="#1F244D"/>
<path d="M815.835 88.5781H810.887L820.537 103.13C820.602 103.221 820.687 103.296 820.786 103.348C820.886 103.4 820.996 103.427 821.108 103.428H824.424C824.547 103.428 824.667 103.395 824.772 103.332C824.877 103.269 824.964 103.178 825.021 103.07C825.079 102.962 825.106 102.84 825.1 102.718C825.094 102.595 825.054 102.477 824.986 102.375L815.835 88.5781Z" fill="#1F244D"/>
<path d="M828.214 104.665C828.214 104.009 827.953 103.379 827.489 102.915C827.025 102.451 826.396 102.19 825.74 102.19H820.774C820.118 102.19 819.489 102.451 819.025 102.915C818.561 103.379 818.3 104.009 818.3 104.665V104.665C818.3 105.322 818.561 105.951 819.025 106.415C819.489 106.88 820.118 107.14 820.774 107.14H825.722C826.379 107.14 827.008 106.88 827.472 106.415C827.936 105.951 828.196 105.322 828.196 104.665H828.214Z" fill="#1F244D"/>
<path d="M798.455 116.435H775.056C774.683 116.435 774.381 116.737 774.381 117.111V130.618C774.381 130.991 774.683 131.293 775.056 131.293H798.455C798.828 131.293 799.13 130.991 799.13 130.618V117.111C799.13 116.737 798.828 116.435 798.455 116.435Z" fill="#5C63AB"/>
<path d="M799.683 112.099H773.811C773.438 112.099 773.135 112.402 773.135 112.775V116.373C773.135 116.747 773.438 117.049 773.811 117.049H799.683C800.056 117.049 800.359 116.747 800.359 116.373V112.775C800.359 112.402 800.056 112.099 799.683 112.099Z" fill="#1F244D"/>
</svg>
