<svg width="1173" height="943" viewBox="0 0 1173 943" fill="none" xmlns="http://www.w3.org/2000/svg">
<path d="M402.779 635.979C373.976 637.638 341.304 665.311 332.057 705.762H486.196C473.878 661.668 433.766 634.189 402.779 635.979Z" fill="#F4F4F4"/>
<path d="M1059.26 606.116C1028.61 608.47 993.837 647.692 984 705H1148C1134.89 642.536 1092.21 603.586 1059.26 606.116Z" fill="#F4F4F4"/>
<path d="M456.343 587C433.793 438.528 578.418 327.527 702.029 322.207C832.37 316.603 1010.62 425.507 996.175 587" fill="#F4F4F4"/>
<path d="M797.173 202.736L967.985 701.065L622.685 699.79L797.173 202.736Z" fill="#F89790" fill-opacity="0.33"/>
<path d="M398.785 193.59C404.083 193.59 409.261 192.018 413.666 189.074C418.071 186.13 421.504 181.945 423.531 177.049C425.559 172.153 426.089 166.765 425.056 161.567C424.022 156.37 421.471 151.595 417.725 147.848C413.979 144.101 409.206 141.549 404.011 140.515C398.815 139.481 393.429 140.012 388.535 142.04C383.641 144.068 379.457 147.502 376.514 151.908C373.571 156.315 372 161.495 372 166.795C372 173.901 374.822 180.717 379.845 185.742C384.868 190.767 391.681 193.59 398.785 193.59Z" fill="#F2463A"/>
<path d="M439.495 540.763L485.511 485.935H575.974L631.246 539.806L630.123 540.526H630.526V704.832H439.557V540.552L439.495 540.763Z" fill="#3F3D56"/>
<path d="M484.792 485.242L541.512 551.777V704.832H439.557V539.113L484.792 485.242Z" fill="#6C63FF"/>
<path d="M439.495 540.763L485.511 485.935H575.974L631.246 539.806L630.123 540.526H630.526V704.832H439.557V540.552L439.495 540.763Z" fill="#1F244D"/>
<path d="M484.792 485.242L541.512 551.777V704.832H439.557V539.113L484.792 485.242Z" fill="#5C63AB"/>
<path d="M457.832 541.974H448.488V579.134H457.832V541.974Z" fill="white"/>
<path d="M523.281 541.974H513.911V579.134H523.264L523.281 541.974Z" fill="white"/>
<path d="M504.576 540.815H467.175V605.841H504.576V540.815Z" fill="white"/>
<path d="M486.117 512.116C475.361 512.116 466.632 521.945 466.456 534.145H505.778C505.603 521.937 496.873 512.116 486.117 512.116Z" fill="white"/>
<path d="M491.214 615.547V704.27" stroke="#1F244D" stroke-width="4" stroke-linecap="round"/>
<path d="M478.704 621.191C474.703 625.175 468.693 627.106 468.693 640.096C468.693 655.016 496.724 661.484 508.735 673.447C520.746 685.409 520.263 693.343 519.263 703.787" stroke="#1F244D" stroke-width="4" stroke-linecap="round"/>
<path d="M483.713 622.683H499.724H483.713Z" stroke="#1F244D" stroke-width="4" stroke-linecap="round"/>
<path d="M477.203 630.652H493.223H477.203Z" stroke="#1F244D" stroke-width="4" stroke-linecap="round"/>
<path d="M474.194 638.604H490.223H474.194Z" stroke="#1F244D" stroke-width="4" stroke-linecap="round"/>
<path d="M476.186 646.564H492.206H476.186Z" stroke="#1F244D" stroke-width="4" stroke-linecap="round"/>
<path d="M497.242 703.269H513.262H497.242Z" stroke="#1F244D" stroke-width="4" stroke-linecap="round"/>
<path d="M499.233 695.318H515.245H499.233Z" stroke="#1F244D" stroke-width="4" stroke-linecap="round"/>
<path d="M500.225 687.331H512.235H500.225Z" stroke="#1F244D" stroke-width="4" stroke-linecap="round"/>
<path d="M497.242 680.389H509.261H497.242Z" stroke="#1F244D" stroke-width="4" stroke-linecap="round"/>
<path d="M495.224 673.429H503.234H495.224Z" stroke="#1F244D" stroke-width="4" stroke-linecap="round"/>
<path d="M482.213 653.533H490.223H482.213Z" stroke="#1F244D" stroke-width="4" stroke-linecap="round"/>
<path d="M557.041 508.991L603.057 454.173H693.52L748.792 508.043L747.669 508.763H748.072V704.928L557.155 705.086L557.076 508.763L557.041 508.991Z" fill="#1F244D"/>
<path d="M602.338 453.453L659.067 519.98V704.928H557.103V507.324L602.338 453.453Z" fill="#5C63AB"/>
<path d="M602.092 482.749L577.149 507.692H627.026L602.092 482.749Z" fill="white"/>
<path fill-rule="evenodd" clip-rule="evenodd" d="M591.941 540.411V589.086H572.333V540.394C572.409 537.843 573.476 535.423 575.306 533.646C577.136 531.869 579.587 530.875 582.137 530.875C584.688 530.875 587.138 531.869 588.968 533.646C590.799 535.423 591.865 537.843 591.941 540.394V540.411Z" fill="white"/>
<path d="M618.885 522.972C608.129 522.972 599.399 532.802 599.224 545.002H638.555C638.379 532.785 629.65 522.972 618.885 522.972Z" fill="white"/>
<path d="M638.555 551.531H599.25V606.718H638.555V551.531Z" fill="white"/>
<path d="M638.44 647.67H616.56V669.128H638.493L638.44 647.67Z" fill="white"/>
<path d="M604.119 647.67H571.017V705.218H604.119V647.67Z" fill="white"/>
<path d="M807.933 378.124H772.26V652.83H807.933V378.124Z" fill="#1F244D"/>
<path d="M840.623 430.362H804.95V705.068H840.623V430.362Z" fill="#1F244D"/>
<path d="M807.924 378.124L840.623 430.362H804.95" fill="#1F244D"/>
<path d="M716.576 430.362L751.67 378.124H772.243L804.924 430.362V705.068H716.576V430.362Z" fill="#5C63AB"/>
<path d="M760.548 395.765V450.03" stroke="#1F244D" stroke-width="4" stroke-linecap="round"/>
<path d="M765.979 395.765V450.03" stroke="#1F244D" stroke-width="4" stroke-linecap="round"/>
<path d="M762.645 467.671V696.266" stroke="#1F244D" stroke-width="4" stroke-linecap="round"/>
<path d="M734.035 477.571H722.296V489.314H734.035V477.571Z" fill="white"/>
<path d="M752.968 477.571H741.221V489.314H752.968V477.571Z" fill="white"/>
<path d="M734.369 504.313H722.63V516.057H734.369V504.313Z" fill="white"/>
<path d="M753.292 504.313H741.545V516.057H753.292V504.313Z" fill="white"/>
<path d="M734.693 531.108H722.955V542.851H734.693V531.108Z" fill="white"/>
<path d="M753.617 531.108H741.87V542.851H753.617V531.108Z" fill="white"/>
<path d="M735 557.833H723.279V569.576H735V557.833Z" fill="white"/>
<path d="M753.942 557.833H742.194V569.576H753.942V557.833Z" fill="white"/>
<path d="M735.351 584.593H723.595V596.344H735.342L735.351 584.593Z" fill="white"/>
<path d="M754.301 584.593H742.554V596.344H754.301V584.593Z" fill="white"/>
<path d="M735.676 611.352H723.928V623.104H735.676V611.352Z" fill="white"/>
<path d="M754.591 611.352H742.843V623.104H754.591V611.352Z" fill="white"/>
<path d="M736 638.112H724.253V649.864H736V638.112Z" fill="white"/>
<path d="M754.924 638.112H743.177V649.864H754.924V638.112Z" fill="white"/>
<path d="M736.325 664.872H724.577V676.624H736.325V664.872Z" fill="white"/>
<path d="M755.249 664.872H743.501V676.624H755.249V664.872Z" fill="white"/>
<path d="M779.92 477.905H768.172V489.656H779.92V477.905Z" fill="white"/>
<path d="M798.835 477.905H787.096V489.656H798.835V477.905Z" fill="white"/>
<path d="M780.245 504.665H768.497V516.416H780.245V504.665Z" fill="white"/>
<path d="M799.16 504.665H787.421V516.416H799.16V504.665Z" fill="white"/>
<path d="M780.569 531.424H768.821V543.176H780.569V531.424Z" fill="white"/>
<path d="M799.484 531.424H787.746V543.176H799.484V531.424Z" fill="white"/>
<path d="M780.894 558.184H769.146V569.936H780.894V558.184Z" fill="white"/>
<path d="M799.818 558.184H788.07V569.936H799.818V558.184Z" fill="white"/>
<path d="M781.218 584.944H769.479V596.695H781.218V584.944Z" fill="white"/>
<path d="M800.142 584.944H788.395V596.695H800.142V584.944Z" fill="white"/>
<path d="M781.542 611.703H769.804V623.455H781.542V611.703Z" fill="white"/>
<path d="M800.467 611.703H788.728V623.455H800.467V611.703Z" fill="white"/>
<path d="M781.868 638.463H770.094V650.215H781.832L781.868 638.463Z" fill="white"/>
<path d="M800.8 638.463H789.053V650.215H800.8V638.463Z" fill="white"/>
<path d="M782.201 665.223H770.453V676.975H782.201V665.223Z" fill="white"/>
<path d="M801.125 665.223H789.395V676.975H801.143L801.125 665.223Z" fill="white"/>
<path d="M799.045 453.611H787.307V465.363H799.045V453.611Z" fill="white"/>
<path d="M733.982 453.611H722.235V465.363H733.982V453.611Z" fill="white"/>
<path d="M649.899 694.905C648.232 694.906 646.596 695.345 645.152 696.178C643.696 694.864 641.89 694 639.954 693.689C638.018 693.377 636.033 693.632 634.238 694.422C632.447 695.219 630.924 696.517 629.853 698.16C628.782 699.803 628.209 701.72 628.202 703.682H659.4C659.214 701.29 658.132 699.057 656.37 697.429C654.608 695.802 652.297 694.9 649.899 694.905Z" fill="#1F244D"/>
<path d="M907.265 529.792H897.772V543.834H907.265V529.792Z" fill="#5C63AB"/>
<path d="M907.265 542.658H826.55V705.481H907.265V542.658Z" fill="#5C63AB"/>
<path d="M906.818 542.597L906.283 705.419L938.832 705.525L939.367 542.702L906.818 542.597Z" fill="#1F244D"/>
<path d="M907.265 542.658H826.55V705.481H907.265V542.658Z" fill="#5C63AB"/>
<path d="M906.818 542.597L906.283 705.419L938.832 705.525L939.367 542.702L906.818 542.597Z" fill="#1F244D"/>
<path d="M854.037 565.741H841.824V577.949H854.037V565.741Z" fill="white"/>
<path d="M873.698 565.741H861.495V577.949H873.698V565.741Z" fill="white"/>
<path d="M893.359 565.741H881.155V577.949H893.359V565.741Z" fill="white"/>
<path d="M854.371 593.553H842.167V605.762H854.371V593.553Z" fill="white"/>
<path d="M874.041 593.553H861.828V605.762H874.041V593.553Z" fill="white"/>
<path d="M893.702 593.553H881.516V605.762H893.719L893.702 593.553Z" fill="white"/>
<path d="M854.713 621.366H842.509V633.574H854.713V621.366Z" fill="white"/>
<path d="M874.374 621.366H862.214V633.574H874.418L874.374 621.366Z" fill="white"/>
<path d="M894.044 621.366H881.831V633.574H894.044V621.366Z" fill="white"/>
<path d="M855.046 649.179H842.842V661.388H855.046V649.179Z" fill="white"/>
<path d="M874.716 649.179H862.512V661.388H874.716V649.179Z" fill="white"/>
<path d="M874.716 681.732H862.512V704.797H874.716V681.732Z" fill="white"/>
<path d="M894.377 649.179H882.173V661.388H894.377V649.179Z" fill="white"/>
<path d="M906.871 529.73L906.827 543.395H912.249V529.73H906.871Z" fill="#1F244D"/>
<path d="M1081.64 672.025C1085.13 672.03 1088.55 670.998 1091.45 669.06C1094.36 667.122 1096.63 664.365 1097.97 661.137C1099.31 657.909 1099.67 654.356 1098.99 650.927C1098.31 647.498 1096.63 644.348 1094.16 641.874C1091.69 639.401 1088.54 637.716 1085.12 637.032C1081.69 636.348 1078.14 636.696 1074.91 638.033C1071.68 639.369 1068.92 641.634 1066.98 644.54C1065.04 647.445 1064 650.862 1064 654.358C1064 659.039 1065.86 663.528 1069.16 666.841C1072.47 670.153 1076.96 672.018 1081.64 672.025Z" fill="#5C63AB"/>
<path d="M1094.77 642.571C1096.47 646.43 1096.73 650.77 1095.51 654.805C1094.28 658.84 1091.65 662.302 1088.09 664.563C1084.53 666.825 1080.28 667.735 1076.11 667.13C1071.94 666.525 1068.12 664.444 1065.35 661.265C1067.19 665.571 1070.67 668.969 1075.01 670.712C1079.36 672.455 1084.22 672.4 1088.52 670.559C1092.83 668.718 1096.22 665.241 1097.97 660.894C1099.71 656.548 1099.65 651.686 1097.81 647.38C1097.07 645.619 1096.04 643.994 1094.76 642.571H1094.77Z" fill="#4B518C"/>
<path d="M1102.21 695.028C1100.54 695.029 1098.91 695.467 1097.46 696.301C1096.01 694.987 1094.2 694.123 1092.26 693.811C1090.33 693.5 1088.34 693.755 1086.55 694.545C1084.76 695.342 1083.23 696.64 1082.16 698.283C1081.09 699.926 1080.52 701.843 1080.51 703.805H1111.7C1111.53 701.406 1110.45 699.164 1108.69 697.527C1106.93 695.891 1104.61 694.982 1102.21 694.984V695.028Z" fill="#1F244D"/>
<path d="M1081.97 655.007V704.524" stroke="#1F244D" stroke-width="4" stroke-linecap="round"/>
<path d="M336.689 704.314C338.9 704.315 341.062 703.661 342.901 702.434C344.74 701.206 346.174 699.46 347.022 697.417C347.869 695.374 348.092 693.126 347.661 690.956C347.231 688.787 346.167 686.794 344.604 685.229C343.042 683.664 341.05 682.599 338.882 682.167C336.713 681.734 334.465 681.955 332.422 682.801C330.38 683.647 328.633 685.081 327.405 686.919C326.176 688.758 325.521 690.921 325.521 693.132C325.521 696.096 326.697 698.939 328.791 701.036C330.885 703.132 333.726 704.311 336.689 704.314Z" stroke="#1F244D" stroke-width="3.99"/>
<path d="M381.433 704.314C383.644 704.315 385.806 703.661 387.645 702.434C389.485 701.206 390.919 699.46 391.766 697.417C392.613 695.374 392.836 693.126 392.405 690.956C391.975 688.787 390.911 686.794 389.349 685.229C387.786 683.664 385.794 682.599 383.626 682.167C381.457 681.734 379.209 681.955 377.167 682.801C375.124 683.647 373.378 685.081 372.149 686.919C370.92 688.758 370.265 690.921 370.265 693.132C370.265 696.096 371.441 698.939 373.535 701.036C375.63 703.132 378.47 704.311 381.433 704.314V704.314Z" stroke="#1F244D" stroke-width="3.99"/>
<path d="M373.063 674.772V667.145C373.063 666.965 373.133 666.792 373.256 666.662C373.387 666.54 373.559 666.471 373.739 666.469H380.073L373.063 674.772ZM344.015 674.763L335.926 693.948C335.874 694.049 335.853 694.161 335.864 694.273C335.878 694.386 335.917 694.494 335.978 694.589C336.04 694.685 336.124 694.763 336.224 694.817C336.325 694.868 336.436 694.895 336.548 694.896H357.271L344.015 674.763ZM344.015 674.763L357.271 694.949L344.015 674.763ZM373.063 674.763L381.837 694.15L373.063 674.763ZM373.063 674.763L357.271 694.949L373.063 674.763Z" stroke="#1F244D" stroke-width="3.99" stroke-linecap="round"/>
<path d="M355.991 698.741C356.82 698.741 357.631 698.494 358.32 698.033C359.01 697.573 359.548 696.917 359.865 696.151C360.182 695.384 360.266 694.541 360.104 693.727C359.942 692.913 359.542 692.166 358.956 691.579C358.369 690.992 357.622 690.593 356.809 690.431C355.995 690.269 355.152 690.352 354.386 690.669C353.619 690.987 352.964 691.525 352.504 692.215C352.043 692.905 351.797 693.716 351.797 694.545C351.796 695.097 351.903 695.643 352.114 696.152C352.324 696.662 352.633 697.125 353.023 697.514C353.412 697.904 353.875 698.213 354.384 698.424C354.894 698.634 355.44 698.742 355.991 698.741V698.741Z" stroke="#1F244D" stroke-width="3.99"/>
<path d="M356.254 695.362L358.798 700.575C358.859 700.688 358.946 700.784 359.053 700.856C359.165 700.918 359.292 700.951 359.421 700.952H362.404" stroke="#1F244D" stroke-width="3.99" stroke-linecap="round"/>
<path d="M341.076 666.706C341.027 666.601 341.006 666.485 341.015 666.37C341.024 666.255 341.063 666.144 341.128 666.048C341.187 665.95 341.273 665.871 341.374 665.82C341.474 665.767 341.586 665.74 341.699 665.741H350.726C350.882 665.734 351.034 665.784 351.156 665.881C351.274 665.975 351.36 666.104 351.402 666.25C351.45 666.395 351.45 666.552 351.402 666.697C351.341 666.838 351.232 666.954 351.095 667.022L343.708 670.98C343.623 671.025 343.531 671.052 343.436 671.059C343.346 671.081 343.253 671.081 343.164 671.059C343.074 671.029 342.99 670.981 342.918 670.919C342.873 670.837 342.843 670.748 342.83 670.656L341.076 666.706Z" fill="#1F244D" stroke="#1F244D" stroke-width="3.99"/>
<path d="M451.278 694.905C449.612 694.904 447.974 695.343 446.532 696.178C445.071 694.87 443.263 694.012 441.326 693.708C439.389 693.404 437.406 693.666 435.615 694.464C433.824 695.261 432.301 696.56 431.231 698.203C430.16 699.846 429.588 701.764 429.582 703.726H460.736C460.555 701.34 459.48 699.11 457.726 697.483C455.973 695.856 453.67 694.951 451.278 694.949V694.905Z" fill="#1F244D"/>
<path d="M409.745 652.988C414.186 652.99 418.528 651.674 422.221 649.207C425.915 646.74 428.794 643.232 430.494 639.128C432.195 635.024 432.64 630.507 431.774 626.15C430.908 621.792 428.769 617.79 425.629 614.648C422.489 611.507 418.488 609.367 414.132 608.501C409.776 607.635 405.261 608.08 401.158 609.781C397.055 611.482 393.549 614.362 391.083 618.057C388.616 621.752 387.301 626.095 387.303 630.538C387.303 636.492 389.667 642.202 393.876 646.413C398.085 650.623 403.793 652.988 409.745 652.988Z" fill="#5C63AB"/>
<path d="M426.441 615.547C428.523 620.448 428.795 625.929 427.21 631.013C425.625 636.096 422.286 640.45 417.788 643.298C413.29 646.145 407.927 647.301 402.657 646.559C397.386 645.816 392.55 643.224 389.014 639.244C390.28 642.249 392.186 644.942 394.599 647.135C397.012 649.328 399.873 650.969 402.984 651.944C406.095 652.919 409.381 653.204 412.613 652.78C415.845 652.355 418.946 651.232 421.7 649.487C424.454 647.742 426.795 645.417 428.56 642.676C430.326 639.934 431.472 636.84 431.921 633.61C432.37 630.38 432.109 627.091 431.159 623.971C430.208 620.852 428.589 617.977 426.415 615.547H426.441Z" fill="#4B518C"/>
<path d="M410.034 637.252V705.086" stroke="#1F244D" stroke-width="4" stroke-linecap="round"/>
<path d="M415.466 669.778L410.386 675.272" stroke="#1F244D" stroke-width="4" stroke-linecap="round"/>
<path d="M984.936 574.421L984.55 697.749C984.545 699.549 985.255 701.277 986.523 702.554C987.792 703.831 989.515 704.552 991.314 704.559H1000.9C1002.7 704.564 1004.43 703.855 1005.7 702.588C1006.98 701.322 1007.7 699.6 1007.71 697.801L1008.09 574.464C1008.09 572.664 1007.38 570.936 1006.12 569.659C1004.85 568.382 1003.12 567.661 1001.32 567.654H991.735C990.845 567.652 989.962 567.825 989.139 568.164C988.315 568.502 987.566 569 986.935 569.628C986.303 570.257 985.802 571.003 985.459 571.826C985.116 572.648 984.938 573.53 984.936 574.421Z" fill="#1F244D"/>
<path d="M991.621 567.636H939.551C938.784 567.611 938.016 567.635 937.253 567.706C935.818 567.923 934.491 568.594 933.467 569.621C932.442 570.648 931.773 571.976 931.559 573.411C931.478 574.172 931.452 574.937 931.48 575.702V696.581C931.452 697.349 931.478 698.117 931.559 698.881C931.772 700.315 932.441 701.643 933.466 702.669C934.491 703.694 935.819 704.363 937.253 704.577C938.016 704.658 938.784 704.684 939.551 704.656H991.621C992.388 704.684 993.156 704.657 993.92 704.577C995.354 704.363 996.681 703.694 997.706 702.669C998.731 701.643 999.4 700.315 999.614 698.881C999.694 698.117 999.721 697.349 999.693 696.581V575.702C999.72 574.937 999.694 574.172 999.614 573.411C999.399 571.976 998.73 570.648 997.706 569.621C996.681 568.594 995.354 567.923 993.92 567.706C993.156 567.635 992.388 567.612 991.621 567.636Z" fill="#5C63AB"/>
<path d="M956.089 579.845H975.04" stroke="#1F244D" stroke-width="4" stroke-linecap="round"/>
<path d="M965.275 699.232C966.433 699.315 967.589 699.047 968.593 698.463C969.597 697.879 970.402 697.007 970.903 695.959C971.404 694.911 971.578 693.736 971.402 692.588C971.227 691.44 970.709 690.371 969.918 689.521C969.126 688.671 968.097 688.079 966.965 687.822C965.832 687.566 964.649 687.656 963.568 688.082C962.488 688.507 961.561 689.249 960.907 690.209C960.254 691.169 959.905 692.304 959.906 693.466C959.856 694.942 960.393 696.378 961.399 697.459C962.406 698.539 963.799 699.177 965.275 699.232Z" fill="#1F244D"/>
<path d="M992.113 588.665H939.069V681.591H992.113V588.665Z" fill="white"/>
<path d="M2 704.884H1171" stroke="#1F244D" stroke-width="4" stroke-linecap="round"/>
<path d="M959.283 543.896C964.819 539.99 975.259 540.569 978.953 543.896" stroke="#F2463A" stroke-width="4.3" stroke-linecap="round"/>
<path d="M965.389 552.032C967.679 550.083 971.995 550.373 973.522 552.032" stroke="#F2463A" stroke-width="4.3" stroke-linecap="round"/>
<path d="M949.79 538.463C957.8 529.792 979.461 529.055 987.761 538.463" stroke="#F2463A" stroke-width="4.3" stroke-linecap="round"/>
<path d="M942.332 530.327C965.459 511.896 986.778 522.647 994.542 530.327" stroke="#F2463A" stroke-width="4.3" stroke-linecap="round"/>
<path d="M805.894 175.766H810.842L815.597 187.947C815.728 188.283 815.791 188.641 815.781 189.001L815.518 200.27C815.508 200.728 815.381 201.175 815.151 201.571C814.921 201.967 814.595 202.298 814.202 202.534L807.183 206.72C807.08 206.783 806.962 206.817 806.841 206.819C806.72 206.82 806.601 206.789 806.497 206.729C806.392 206.669 806.305 206.582 806.245 206.477C806.185 206.372 806.155 206.253 806.157 206.132V202.736C806.156 202.624 806.184 202.513 806.237 202.415C806.291 202.317 806.369 202.234 806.464 202.174L810.5 199.48C810.592 199.418 810.667 199.334 810.719 199.236C810.771 199.138 810.798 199.029 810.798 198.918V188.965C810.799 188.629 810.736 188.296 810.614 187.982L805.894 175.766Z" fill="#1F244D"/>
<path d="M783.618 176.406H778.661L773.914 188.597C773.783 188.929 773.72 189.284 773.73 189.641L773.993 200.91C774.002 201.369 774.127 201.817 774.358 202.213C774.588 202.609 774.916 202.94 775.309 203.175L782.275 207.361C782.378 207.423 782.495 207.457 782.615 207.459C782.735 207.461 782.854 207.431 782.958 207.372C783.063 207.313 783.15 207.227 783.21 207.124C783.27 207.02 783.302 206.902 783.302 206.782V203.394C783.303 203.282 783.276 203.171 783.224 203.072C783.172 202.972 783.096 202.887 783.003 202.824L778.968 200.138C778.875 200.074 778.799 199.989 778.746 199.89C778.692 199.791 778.663 199.68 778.661 199.567V189.571C778.661 189.235 778.723 188.901 778.845 188.588L783.618 176.406Z" fill="#1F244D"/>
<path d="M814.316 152.244H775.187C773.689 152.244 772.476 153.459 772.476 154.956V174.291C772.476 175.789 773.689 177.003 775.187 177.003H814.316C815.813 177.003 817.027 175.789 817.027 174.291V154.956C817.027 153.459 815.813 152.244 814.316 152.244Z" fill="#5C63AB"/>
<path d="M750.2 162.364C750.2 161.644 750.486 160.955 750.994 160.446C751.503 159.938 752.192 159.652 752.911 159.652H772.476V169.561H752.911C752.555 169.561 752.201 169.49 751.872 169.353C751.542 169.216 751.243 169.016 750.991 168.763C750.739 168.51 750.54 168.21 750.404 167.88C750.268 167.55 750.199 167.197 750.2 166.84V162.364Z" fill="#5C63AB"/>
<path d="M839.302 162.364C839.302 161.644 839.017 160.955 838.508 160.446C838 159.938 837.311 159.652 836.592 159.652H817.027V169.561H836.592C836.948 169.561 837.302 169.49 837.631 169.353C837.96 169.216 838.26 169.016 838.512 168.763C838.763 168.51 838.963 168.21 839.099 167.88C839.234 167.55 839.304 167.197 839.302 166.84V162.364Z" fill="#5C63AB"/>
<path d="M795.374 172.044C799.473 172.044 802.796 168.72 802.796 164.619C802.796 160.518 799.473 157.194 795.374 157.194C791.275 157.194 787.952 160.518 787.952 164.619C787.952 168.72 791.275 172.044 795.374 172.044Z" fill="#1F244D"/>
<path d="M778.047 158.432C778.73 158.432 779.284 157.878 779.284 157.194C779.284 156.511 778.73 155.957 778.047 155.957C777.364 155.957 776.81 156.511 776.81 157.194C776.81 157.878 777.364 158.432 778.047 158.432Z" fill="#1F244D"/>
<path d="M782.995 158.432C783.678 158.432 784.232 157.878 784.232 157.194C784.232 156.511 783.678 155.957 782.995 155.957C782.312 155.957 781.758 156.511 781.758 157.194C781.758 157.878 782.312 158.432 782.995 158.432Z" fill="#1F244D"/>
<path d="M778.047 162.767H782.995" stroke="#1F244D" stroke-width="4" stroke-linecap="round"/>
<path d="M778.047 167.717H782.995" stroke="#1F244D" stroke-width="4" stroke-linecap="round"/>
<path d="M757.008 157.431C757.008 156.712 757.294 156.022 757.802 155.514C758.311 155.005 759 154.719 759.719 154.719H764.194C764.913 154.719 765.602 155.005 766.111 155.514C766.619 156.022 766.905 156.712 766.905 157.431V159.669H757.008V157.431Z" fill="#1F244D"/>
<path d="M764.431 144.811H759.482V154.719H764.431V144.811Z" fill="#1F244D"/>
<path fill-rule="evenodd" clip-rule="evenodd" d="M764.431 144.811C764.431 142.766 763.325 141.098 761.956 141.098C760.588 141.098 759.482 142.766 759.482 144.811H764.431Z" fill="#1F244D"/>
<path d="M744.375 144.811C744.375 144.495 744.44 144.183 744.567 143.894C744.693 143.605 744.878 143.346 745.109 143.131C745.341 142.917 745.614 142.753 745.912 142.649C746.209 142.546 746.525 142.505 746.84 142.529L759.833 143.529C760.005 143.54 760.165 143.617 760.283 143.742C760.4 143.868 760.465 144.033 760.465 144.205V145.425C760.465 145.597 760.4 145.762 760.283 145.888C760.165 146.014 760.005 146.09 759.833 146.101L746.84 147.101C746.525 147.124 746.209 147.082 745.911 146.977C745.613 146.873 745.34 146.708 745.109 146.493C744.877 146.278 744.693 146.018 744.567 145.728C744.44 145.439 744.375 145.126 744.375 144.811Z" fill="#1F244D"/>
<path d="M779.644 144.811C779.643 144.494 779.578 144.182 779.451 143.892C779.324 143.602 779.138 143.342 778.906 143.128C778.673 142.913 778.399 142.75 778.1 142.646C777.802 142.543 777.485 142.503 777.17 142.529L764.176 143.529C764.005 143.54 763.844 143.616 763.726 143.742C763.609 143.868 763.544 144.033 763.544 144.205V145.425C763.544 145.597 763.609 145.762 763.726 145.888C763.844 146.013 764.005 146.09 764.176 146.101L777.17 147.101C777.485 147.124 777.801 147.082 778.1 146.977C778.398 146.873 778.672 146.708 778.904 146.493C779.135 146.278 779.321 146.018 779.448 145.729C779.576 145.439 779.642 145.127 779.644 144.811Z" fill="#1F244D"/>
<path d="M739.286 147.909C737.26 145.328 738.777 141.124 740.804 140.484" stroke="#F2463A" stroke-width="4" stroke-linecap="round"/>
<path d="M733.092 147.909C730.39 143.661 733.092 138 736.952 138" stroke="#F2463A" stroke-width="4" stroke-linecap="round"/>
<path d="M822.633 157.431C822.633 156.712 822.919 156.022 823.427 155.514C823.936 155.005 824.625 154.719 825.344 154.719H829.819C830.538 154.719 831.227 155.005 831.736 155.514C832.244 156.022 832.53 156.712 832.53 157.431V159.669H822.633V157.431Z" fill="#1F244D"/>
<path d="M830.02 144.811H825.072V154.719H830.02V144.811Z" fill="#1F244D"/>
<path fill-rule="evenodd" clip-rule="evenodd" d="M830.02 144.811C830.02 142.766 828.914 141.098 827.546 141.098C826.177 141.098 825.072 142.766 825.072 144.811H830.02Z" fill="#1F244D"/>
<path d="M809.964 144.811C809.965 144.495 810.03 144.183 810.156 143.894C810.283 143.605 810.468 143.346 810.699 143.131C810.93 142.917 811.204 142.753 811.501 142.649C811.799 142.546 812.115 142.505 812.43 142.529L825.432 143.529C825.602 143.543 825.76 143.62 825.876 143.745C825.991 143.87 826.055 144.035 826.055 144.205V145.425C826.055 145.596 825.991 145.76 825.876 145.885C825.76 146.011 825.602 146.088 825.432 146.101L812.43 147.101C812.115 147.124 811.799 147.082 811.501 146.977C811.203 146.873 810.93 146.708 810.699 146.493C810.467 146.278 810.283 146.018 810.156 145.728C810.03 145.439 809.965 145.126 809.964 144.811Z" fill="#1F244D"/>
<path d="M845.242 144.811C845.242 144.494 845.176 144.182 845.049 143.892C844.922 143.602 844.737 143.342 844.505 143.128C844.272 142.913 843.998 142.75 843.699 142.646C843.4 142.543 843.083 142.503 842.768 142.529L829.775 143.529C829.605 143.542 829.446 143.619 829.331 143.745C829.215 143.87 829.151 144.035 829.152 144.205V145.425C829.151 145.595 829.215 145.76 829.331 145.885C829.446 146.01 829.605 146.087 829.775 146.101L842.768 147.101C843.083 147.124 843.4 147.082 843.698 146.977C843.996 146.873 844.27 146.708 844.502 146.493C844.734 146.278 844.919 146.018 845.047 145.729C845.174 145.439 845.241 145.127 845.242 144.811Z" fill="#1F244D"/>
<path d="M765.676 169.578H770.625L760.921 184.13C760.859 184.222 760.776 184.297 760.678 184.349C760.58 184.401 760.471 184.428 760.36 184.428H757.035C756.912 184.428 756.792 184.395 756.686 184.332C756.581 184.269 756.495 184.178 756.437 184.07C756.38 183.962 756.353 183.84 756.359 183.718C756.365 183.595 756.405 183.477 756.473 183.375L765.676 169.578Z" fill="#1F244D"/>
<path d="M755.772 183.19H760.72C761.377 183.19 762.007 183.451 762.472 183.915C762.938 184.379 763.2 185.008 763.203 185.665C763.2 186.323 762.938 186.952 762.472 187.416C762.007 187.88 761.377 188.14 760.72 188.14H755.772C755.115 188.14 754.486 187.88 754.022 187.415C753.558 186.951 753.297 186.322 753.297 185.665C753.297 185.009 753.558 184.379 754.022 183.915C754.486 183.451 755.115 183.19 755.772 183.19Z" fill="#1F244D"/>
<path d="M823.835 169.578H818.887L828.537 184.13C828.602 184.221 828.687 184.296 828.786 184.348C828.886 184.4 828.996 184.427 829.108 184.428H832.424C832.547 184.428 832.667 184.395 832.772 184.332C832.877 184.269 832.964 184.178 833.021 184.07C833.079 183.962 833.106 183.84 833.1 183.718C833.094 183.595 833.054 183.477 832.986 183.375L823.835 169.578Z" fill="#1F244D"/>
<path d="M836.214 185.665C836.214 185.009 835.953 184.379 835.489 183.915C835.025 183.451 834.396 183.19 833.74 183.19H828.774C828.118 183.19 827.489 183.451 827.025 183.915C826.561 184.379 826.3 185.009 826.3 185.665C826.3 186.322 826.561 186.951 827.025 187.415C827.489 187.88 828.118 188.14 828.774 188.14H833.722C834.379 188.14 835.008 187.88 835.472 187.415C835.936 186.951 836.196 186.322 836.196 185.665H836.214Z" fill="#1F244D"/>
<path d="M806.455 197.435H783.056C782.683 197.435 782.381 197.737 782.381 198.111V211.618C782.381 211.991 782.683 212.293 783.056 212.293H806.455C806.828 212.293 807.13 211.991 807.13 211.618V198.111C807.13 197.737 806.828 197.435 806.455 197.435Z" fill="#5C63AB"/>
<path d="M807.683 193.099H781.811C781.438 193.099 781.135 193.402 781.135 193.775V197.373C781.135 197.747 781.438 198.049 781.811 198.049H807.683C808.056 198.049 808.359 197.747 808.359 197.373V193.775C808.359 193.402 808.056 193.099 807.683 193.099Z" fill="#1F244D"/>
<path d="M386.121 861.308C394.624 861.308 402.935 858.786 410.005 854.061C417.075 849.335 422.585 842.619 425.838 834.761C429.092 826.902 429.944 818.256 428.285 809.913C426.626 801.571 422.532 793.908 416.52 787.894C410.507 781.88 402.847 777.784 394.508 776.125C386.169 774.465 377.525 775.317 369.67 778.572C361.815 781.827 355.101 787.339 350.377 794.411C345.653 801.483 343.132 809.798 343.132 818.303C343.132 829.709 347.661 840.647 355.723 848.712C363.785 856.777 374.72 861.308 386.121 861.308Z" fill="#5C63AB"/>
<path d="M418.1 789.578C422.222 798.973 422.845 809.534 419.857 819.349C416.868 829.164 410.465 837.585 401.807 843.086C393.149 848.587 382.809 850.805 372.657 849.339C362.506 847.873 353.215 842.819 346.466 835.093C348.685 840.286 351.905 844.991 355.941 848.94C359.978 852.889 364.753 856.003 369.993 858.106C375.233 860.208 380.836 861.258 386.481 861.195C392.127 861.131 397.705 859.956 402.896 857.736C408.088 855.516 412.791 852.295 416.738 848.257C420.686 844.219 423.799 839.442 425.901 834.201C428.003 828.959 429.052 823.354 428.989 817.706C428.925 812.059 427.75 806.479 425.531 801.286C423.715 797 421.205 793.045 418.1 789.578Z" fill="#4B518C"/>
<path d="M386.929 819.883V940.447" stroke="#1F244D" stroke-width="4" stroke-linecap="round"/>
<path d="M561.022 819.063C566.168 819.063 571.199 817.536 575.479 814.676C579.758 811.815 583.093 807.75 585.063 802.993C587.032 798.236 587.548 793.002 586.544 787.953C585.54 782.903 583.061 778.265 579.422 774.624C575.783 770.984 571.146 768.505 566.098 767.5C561.051 766.496 555.819 767.011 551.064 768.982C546.309 770.952 542.245 774.288 539.385 778.569C536.526 782.85 535 787.883 535 793.031C535 799.935 537.742 806.556 542.622 811.438C547.502 816.32 554.12 819.063 561.022 819.063Z" fill="#5C63AB"/>
<path d="M580.639 776.18C583.059 781.86 583.383 788.215 581.553 794.112C579.723 800.009 575.858 805.063 570.648 808.373C565.437 811.683 559.221 813.033 553.108 812.183C546.994 811.332 541.382 808.336 537.272 803.73C539.891 809.848 544.753 814.731 550.86 817.375C556.966 820.018 563.852 820.221 570.104 817.942C576.355 815.663 581.496 811.075 584.471 805.122C587.445 799.168 588.027 792.301 586.096 785.931C585.008 782.322 583.146 778.995 580.639 776.18Z" fill="#4B518C"/>
<path d="M561.899 801.711V867.448" stroke="#1F244D" stroke-width="4" stroke-linecap="round"/>
<path d="M567.154 833.263L562.268 838.529" stroke="#1F244D" stroke-width="4" stroke-linecap="round"/>
<path d="M581.13 861.023C579.463 861.018 577.825 861.458 576.384 862.296C574.92 860.99 573.112 860.134 571.174 859.83C569.237 859.527 567.253 859.789 565.461 860.584C563.675 861.376 562.156 862.667 561.087 864.302C560.018 865.937 559.444 867.846 559.434 869.8H590.623C590.441 867.408 589.361 865.174 587.6 863.546C585.84 861.918 583.528 861.016 581.13 861.023Z" fill="#1F244D"/>
<path d="M1052.56 857.158C1059.2 857.16 1065.69 855.192 1071.21 851.503C1076.73 847.815 1081.03 842.571 1083.58 836.435C1086.12 830.3 1086.78 823.548 1085.49 817.034C1084.2 810.519 1081 804.535 1076.31 799.838C1071.61 795.141 1065.63 791.942 1059.12 790.646C1052.61 789.35 1045.86 790.014 1039.72 792.555C1033.59 795.096 1028.35 799.4 1024.66 804.923C1020.97 810.445 1019 816.937 1019 823.579C1019 827.988 1019.87 832.355 1021.55 836.429C1023.24 840.503 1025.71 844.204 1028.83 847.323C1031.94 850.441 1035.64 852.914 1039.71 854.602C1043.79 856.29 1048.15 857.158 1052.56 857.158Z" fill="#5C63AB"/>
<path d="M1077.86 801.848C1080.99 809.174 1081.41 817.374 1079.05 824.982C1076.69 832.591 1071.71 839.113 1064.98 843.383C1058.26 847.653 1050.24 849.393 1042.35 848.293C1034.47 847.193 1027.23 843.323 1021.93 837.376C1023.85 841.845 1026.71 845.844 1030.32 849.096C1033.94 852.349 1038.21 854.778 1042.86 856.214C1047.5 857.651 1052.4 858.061 1057.22 857.417C1062.04 856.773 1066.66 855.089 1070.76 852.482C1074.86 849.876 1078.35 846.409 1080.98 842.321C1083.62 838.233 1085.33 833.622 1086 828.806C1086.68 823.991 1086.3 819.087 1084.89 814.432C1083.49 809.777 1081.09 805.484 1077.86 801.848Z" fill="#4B518C"/>
<path d="M1053.68 834.787V919.603" stroke="#1F244D" stroke-width="4" stroke-linecap="round"/>
<path d="M1060.46 875.475L1054.16 882.303" stroke="#1F244D" stroke-width="4" stroke-linecap="round"/>
<path d="M1088.84 910.827C1087.18 910.822 1085.54 911.261 1084.1 912.1C1082.64 910.792 1080.83 909.936 1078.89 909.632C1076.95 909.329 1074.97 909.591 1073.18 910.389C1071.39 911.186 1069.87 912.484 1068.79 914.126C1067.72 915.769 1067.15 917.686 1067.14 919.647H1098.34C1098.16 917.256 1097.08 915.021 1095.32 913.393C1093.55 911.765 1091.24 910.864 1088.84 910.871V910.827Z" fill="#1F244D"/>
</svg>
