<svg width="1451" height="388" viewBox="0 0 1451 388" fill="none" xmlns="http://www.w3.org/2000/svg">
<path d="M1 387.425C117.874 373.918 388.834 336.797 537.685 296.367L1199.41 283.164L1211.92 183C1211.92 183 1263.72 297.985 1450 387.425H137H1Z" fill="#F4F4F4" stroke="#F4F4F4"/>
<path d="M534.835 296C534.835 296 894.64 202.222 891.209 106.181C884.927 79.6314 841.526 72.8296 841.526 72.8296C841.526 72.8296 738.719 59.2961 794.693 26.5596C850.667 -6.17701 1003.72 1.70434 1003.72 1.70434C1003.72 1.70434 846.097 26.5595 915.766 40.0842C971.74 43.472 1043.7 58.164 1043.7 58.164C1043.7 58.164 1189.88 88.6713 1210.47 163.237C1231.06 237.803 1213.89 295.438 1213.89 295.438L534.835 296Z" fill="#F4F4F4"/>
</svg>
