<svg width="182" height="235" viewBox="0 0 182 235" fill="none" xmlns="http://www.w3.org/2000/svg">
<rect x="67.5576" y="98.6282" width="65.3903" height="23.1214" fill="#1F244D"/>
<rect x="54.9121" y="98.6284" width="52.0232" height="23.1214" fill="#4B518C"/>
<rect x="40.1021" y="10.8376" width="2.89018" height="33.5983" fill="#3D4273"/>
<rect x="39.0166" y="10.8376" width="2.89018" height="33.5983" fill="#8991DC"/>
<circle cx="40.6426" cy="6.32227" r="6.32227" fill="#F2463A"/>
<circle cx="38.6566" cy="4.6969" r="3.97399" fill="white"/>
<rect x="15.1719" y="22.76" width="143.425" height="76.2284" fill="#1F244D"/>
<rect x="15.1719" y="22.76" width="91.7632" height="76.2284" fill="#5C63AB"/>
<rect y="118.497" width="106.937" height="116.33" fill="#5C63AB"/>
<rect x="106.936" y="118.497" width="74.7834" height="116.33" fill="#1F244D"/>
<path d="M51.9945 44.6164C51.9945 51.3952 46.4992 56.8905 39.7204 56.8905C36.7442 56.8905 34.379 56.8905 34.379 56.8905C33.0143 51.2477 34.379 36.1449 34.379 32.3423C34.379 32.3423 32.9416 32.3423 39.7204 32.3423C46.4992 32.3423 51.9945 37.8376 51.9945 44.6164Z" fill="#F2463A"/>
<circle cx="34.0378" cy="44.6164" r="12.2741" fill="#F89790"/>
<path d="M25.3593 35.9374C20.5659 40.7307 20.5659 48.5022 25.3593 53.2956L42.7175 35.9374C37.9241 31.144 30.1526 31.144 25.3593 35.9374Z" fill="white"/>
<path d="M99.956 141.997C99.956 148.776 94.4607 154.271 87.6819 154.271C84.7057 154.271 82.3404 154.271 82.3404 154.271C80.9757 148.628 82.3404 133.525 82.3404 129.723C82.3404 129.723 80.9031 129.723 87.6819 129.723C94.4607 129.723 99.956 135.218 99.956 141.997Z" fill="#A6A6A6"/>
<circle cx="84.1662" cy="141.997" r="12.2741" fill="white"/>
<path d="M75.4877 133.318C70.6944 138.111 70.6944 145.883 75.4877 150.676L92.8459 133.318C88.0525 128.524 80.281 128.524 75.4877 133.318Z" fill="white"/>
<circle cx="83.9962" cy="141.825" r="6.9899" stroke="#4B518C" stroke-width="3"/>
<circle cx="136.199" cy="44.4366" r="10.7833" stroke="#5C63AB" stroke-width="3"/>
<path d="M23.1626 71.7794C23.1626 67.1532 27.6202 63.8338 32.0524 65.1595C44.7862 68.9683 58.3054 69.3118 71.2162 66.1548L75.9251 65.0034C81.1349 63.7294 86.1608 67.6744 86.1608 73.0378C86.1608 76.8128 83.6048 80.1088 79.9487 81.0485L79.29 81.2178C63.1337 85.3704 46.1897 85.3704 30.0333 81.2178L29.1727 80.9966C25.6354 80.0874 23.1626 76.8986 23.1626 73.2464V71.7794Z" fill="#D1D5FF"/>
<path fill-rule="evenodd" clip-rule="evenodd" d="M58.5269 84.2568V68.122C62.7891 67.8327 67.0349 67.1774 71.2169 66.1548L71.8939 65.9893V82.8201C67.468 83.6029 63.0019 84.0818 58.5269 84.2568Z" fill="white"/>
<path fill-rule="evenodd" clip-rule="evenodd" d="M30.9784 64.5288C27.9464 66.1315 25.795 69.3072 25.795 73.1174C25.795 76.5496 27.5983 79.6585 30.4286 81.3925L29.0099 81.0197C25.3265 80.0517 22.7588 76.722 22.7588 72.9135C22.7588 68.217 26.5566 64.6063 30.9784 64.5288Z" fill="#1F244D"/>
<path d="M137.581 138.729C153.977 138.729 167.27 152.021 167.27 168.417V234.827H129.697L137.581 138.729Z" fill="#3D4273"/>
<path d="M121.026 157.515C121.026 147.139 129.437 138.729 139.813 138.729C150.188 138.729 158.599 147.139 158.599 157.515V234.827H121.026V157.515Z" fill="#5C63AB"/>
<circle cx="139.813" cy="166.547" r="10.7833" stroke="#ABB2FF" stroke-width="3"/>
<rect x="54.9121" y="102.602" width="52.0232" height="1.80636" fill="#8991DC"/>
<rect x="54.9121" y="109.104" width="52.0232" height="1.80636" fill="#8991DC"/>
<rect x="54.9121" y="115.607" width="52.0232" height="1.80636" fill="#8991DC"/>
<rect x="106.936" y="102.602" width="26.0116" height="1.80636" fill="#4B518C"/>
<rect x="106.936" y="109.104" width="26.0116" height="1.80636" fill="#4B518C"/>
<rect x="106.936" y="115.607" width="26.0116" height="1.80636" fill="#4B518C"/>
<rect x="11.1997" y="168.714" width="82.0088" height="40.0378" rx="10" fill="#D1D5FF"/>
<path fill-rule="evenodd" clip-rule="evenodd" d="M23.7663 168.714C18.2571 168.73 13.7961 173.201 13.7961 178.714V198.752C13.7961 204.275 18.2732 208.752 23.7961 208.752H83.2378C83.228 208.752 83.2183 208.752 83.2085 208.752H21.1997C15.6769 208.752 11.1997 204.275 11.1997 198.752V178.714C11.1997 173.191 15.6769 168.714 21.1997 168.714H23.7663Z" fill="#1F244D"/>
<path fill-rule="evenodd" clip-rule="evenodd" d="M25.1865 208.751L65.2243 168.713H83.2085C85.9744 168.713 88.4781 169.836 90.2885 171.651L53.1886 208.751H25.1865Z" fill="white"/>
<rect x="11.1997" y="132.226" width="47.3267" height="22.0376" rx="10" fill="#D1D5FF"/>
<path fill-rule="evenodd" clip-rule="evenodd" d="M21.1997 132.226C15.6769 132.226 11.1997 136.703 11.1997 142.226V144.263C11.1997 149.786 15.6769 154.263 21.1997 154.263H24.0661C18.5536 154.251 14.0886 149.779 14.0886 144.263V142.226C14.0886 136.703 18.5658 132.226 24.0886 132.226H48.5485C48.5412 132.226 48.5338 132.226 48.5264 132.226H21.1997Z" fill="#1F244D"/>
<path d="M92.3954 44.6166C92.3954 51.3954 86.9001 56.8907 80.1213 56.8907C77.1451 56.8907 74.7798 56.8907 74.7798 56.8907C73.4152 51.2479 74.7799 36.1451 74.7799 32.3425C74.7799 32.3425 73.3425 32.3425 80.1213 32.3425C86.9001 32.3425 92.3954 37.8378 92.3954 44.6166Z" fill="#F2463A"/>
<circle cx="74.4386" cy="44.6166" r="12.2741" fill="#F89790"/>
<path d="M65.7602 35.9371C60.9668 40.7304 60.9668 48.502 65.7602 53.2953L83.1183 35.9371C78.325 31.1438 70.5535 31.1438 65.7602 35.9371Z" fill="white"/>
<path d="M54.9125 139.229C54.9125 141.101 53.3947 142.619 51.5223 142.619C50.7002 142.619 50.0469 142.619 50.0469 142.619C49.67 141.06 50.0469 136.889 50.0469 135.838C50.0469 135.838 49.6499 135.838 51.5223 135.838C53.3947 135.838 54.9125 137.356 54.9125 139.229Z" fill="#F2463A"/>
<circle cx="49.9532" cy="139.229" r="3.39025" fill="#F89790"/>
<path d="M54.9121 147.538C54.9121 149.411 53.3942 150.928 51.5218 150.928C50.6997 150.928 50.0464 150.928 50.0464 150.928C49.6695 149.37 50.0464 145.198 50.0464 144.148C50.0464 144.148 49.6494 144.148 51.5218 144.148C53.3942 144.148 54.9121 145.666 54.9121 147.538Z" fill="#F2463A"/>
<circle cx="49.9527" cy="147.538" r="3.39025" fill="#F89790"/>
<path d="M18.7882 138.007C15.8959 140.899 15.8959 145.588 18.7882 148.481L29.2619 138.007C26.3697 135.115 21.6804 135.115 18.7882 138.007Z" fill="white"/>
<path d="M21.3797 139.413C21.3149 139.281 21.4899 139.163 21.5878 139.273L24.9321 143.03C25.2598 143.398 25.1873 143.971 24.7782 144.246C24.3692 144.521 23.8116 144.372 23.5945 143.929L21.3797 139.413Z" fill="#F2463A"/>
<circle cx="25.1092" cy="143.244" r="5.90608" stroke="#F2463A" stroke-width="3"/>
<circle cx="24.0257" cy="143.244" r="5.90608" stroke="#F2463A" stroke-width="3"/>
<rect x="38.2949" y="136.199" width="4.69654" height="13.7283" fill="#1F244D"/>
<rect x="36.4878" y="136.2" width="4.69654" height="13.7283" fill="#8991DC"/>
<path d="M121.026 188.946H158.599" stroke="#ABB2FF" stroke-width="3"/>
<path d="M121.026 207.009H158.599" stroke="#ABB2FF" stroke-width="3"/>
<path d="M158.599 188.946H167.27" stroke="#5C63AB" stroke-width="3"/>
<path d="M158.599 207.009H167.27" stroke="#5C63AB" stroke-width="3"/>
<rect x="19.563" y="175.272" width="65.2805" height="6.39308" rx="3.19654" stroke="#5C63AB" stroke-width="3"/>
<rect x="47.3276" y="186.777" width="36.8498" height="16.6185" fill="#1F244D"/>
<rect x="20.23" y="186.778" width="58.5261" height="16.6185" fill="#8991DC"/>
<path d="M75.9091 195.226C75.9091 197.098 74.3913 198.616 72.5189 198.616C71.6968 198.616 71.0435 198.616 71.0435 198.616C70.6666 197.057 71.0435 192.886 71.0435 191.835C71.0435 191.835 70.6465 191.835 72.5189 191.835C74.3913 191.835 75.9091 193.353 75.9091 195.226Z" fill="#F2463A"/>
<circle cx="70.9479" cy="195.226" r="3.39025" fill="#F89790"/>
<path d="M26.3735 189.668L26.3735 200.506" stroke="#32386B" stroke-width="4" stroke-linecap="round"/>
<path d="M40.4619 189.668L40.4619 200.506" stroke="#32386B" stroke-width="4" stroke-linecap="round"/>
<path d="M54.9121 189.668L54.9121 200.506" stroke="#32386B" stroke-width="4" stroke-linecap="round"/>
<rect x="24.2046" y="197.254" width="5.78036" height="2.52891" fill="#1F244D"/>
<rect x="23.1211" y="197.254" width="5.78036" height="2.52891" fill="#D1D5FF"/>
<rect x="37.9331" y="190.39" width="5.78036" height="2.52891" fill="#1F244D"/>
<rect x="36.8496" y="190.39" width="5.78036" height="2.52891" fill="#D1D5FF"/>
<rect x="52.3853" y="194.003" width="5.78036" height="2.52891" fill="#1F244D"/>
<rect x="51.3018" y="194.003" width="5.78036" height="2.52891" fill="#D1D5FF"/>
<path d="M135.477 10.8376H138.367V41.5458C138.367 43.142 137.073 44.436 135.477 44.436V10.8376Z" fill="#3D4273"/>
<path d="M134.393 10.8376H137.283V44.436C135.687 44.436 134.393 43.142 134.393 41.5458V10.8376Z" fill="#8991DC"/>
<circle cx="136.02" cy="6.32227" r="6.32227" fill="#F2463A"/>
<circle cx="134.032" cy="4.6969" r="3.97399" fill="white"/>
</svg>
